<svg width="25" height="25" viewBox="0 0 25 25" xmlns="http://www.w3.org/2000/svg" xmlns:xlink="http://www.w3.org/1999/xlink">
    <title>
        angellist
    </title>
    <defs>
        <path id="a" d="M0 24.997h24.96V.04H0z"/>
    </defs>
    <g fill="none" fill-rule="evenodd">
        <path d="M14.986 7.605l-1.087 3.13 1.116.2c1.05-2.868 1.573-4.516 1.573-4.94 0-.357-.12-.535-.364-.535-.363 0-.776.715-1.24 2.145zm-2.853 6.553l.315.84c.236-.268.46-.48.677-.64l-.316-.052-.37-.066c-.24-.045-.344-.07-.307-.082zM9.35 5.612c0 .622.505 2.28 1.516 4.97a.977.977 0 0 1 .468-.097c.096 0 .333.016.715.047l-1.156-3.35c-.476-1.398-.868-2.097-1.174-2.097a.304.304 0 0 0-.277.167.728.728 0 0 0-.094.36zm-.756 7.24c0 .228.164.607.49 1.135a9.19 9.19 0 0 0 1.123 1.46c.42.445.738.668.954.668a.32.32 0 0 0 .243-.124.386.386 0 0 0 .11-.257c0-.152-.1-.476-.305-.973a11.517 11.517 0 0 0-.76-1.537 3.586 3.586 0 0 0-.585-.772c-.21-.203-.406-.305-.59-.305-.128 0-.273.086-.435.258-.162.17-.244.32-.244.45zm-1.507 3.195c0 .26.08.59.24.993.374.922.958 1.644 1.75 2.164.792.522 1.686.78 2.686.783 1.444 0 2.658-.54 3.643-1.622.967-1.074 1.45-2.433 1.45-4.073 0-.273-.004-.486-.01-.638a2.852 2.852 0 0 0-.11-.59c-.067-.244-.164-.422-.292-.535-.356-.313-1.03-.552-2.018-.72-.99-.17-1.85-.254-2.58-.254-.235 0-.39.035-.467.104-.078.032-.116.143-.116.334 0 .216.068.406.206.572.136.165.314.293.528.382.217.09.462.164.74.223.277.062.554.1.835.11l.81.04c.263.01.484.01.67 0h.22c.15 0 .278.06.38.18.097.12.156.297.182.526-.177.177-.483.35-.915.514-.387.14-.684.286-.888.44a4.096 4.096 0 0 0-1.034 1.086c-.283.433-.424.87-.424 1.307 0 .197.06.478.176.844.117.366.176.643.176.835l-.028.115a.716.716 0 0 0-.038.135c-.872-.063-1.336-.75-1.392-2.06-.05.012-.18.02-.39.02a1.107 1.107 0 0 1-.366 1.053c-.26.232-.56.348-.903.348-.522 0-1.052-.247-1.588-.744-.537-.497-.806-1.003-.806-1.52 0-.215.105-.428.316-.637.33.406.52.65.572.725.49.66.912.993 1.268.993a.51.51 0 0 0 .253-.08c.092-.055.138-.12.138-.197 0-.216-.28-.676-.836-1.383-.556-.706-.926-1.058-1.11-1.058-.275 0-.496.14-.67.423a1.64 1.64 0 0 0-.26.862zM6 16.133c0-.642.134-1.16.405-1.555.27-.394.704-.673 1.3-.838-.177-.47-.266-.8-.266-.993 0-.394.193-.785.582-1.174.387-.387.776-.582 1.163-.582.185 0 .406.048.668.144C8.817 8.197 8.3 6.394 8.3 5.724c0-.508.13-.923.39-1.244.26-.32.64-.48 1.135-.48.834 0 1.866 1.847 3.1 5.54.038.11.062.183.076.22.04-.1.132-.353.278-.758.147-.404.285-.78.416-1.13.13-.35.3-.755.514-1.216.213-.46.42-.853.616-1.173.197-.32.422-.597.673-.825.25-.23.494-.344.73-.344.45 0 .807.155 1.068.467.26.314.39.7.39 1.165 0 .687-.505 2.435-1.516 5.246.386.097.707.244.958.44.25.198.438.446.558.746.12.298.204.596.248.89.045.296.066.648.066 1.054a7.81 7.81 0 0 1-.448 2.67 6.488 6.488 0 0 1-1.26 2.148 5.724 5.724 0 0 1-2.012 1.43c-.8.35-1.685.525-2.652.525a6.036 6.036 0 0 1-2.127-.4c-.947-.364-1.766-.973-2.46-1.827C6.345 18.01 6 17.1 6 16.133z" fill="#202334"/>
        <g>
            <mask id="b" fill="#fff">
                <use xlink:href="#a"/>
            </mask>
            <path d="M12.48.04c-3.39 0-3.814.014-5.145.074-1.33.06-2.236.272-3.03.58-.82.32-1.516.746-2.21 1.44a6.117 6.117 0 0 0-1.44 2.21c-.308.795-.52 1.702-.58 3.03C.015 8.704 0 9.13 0 12.52c0 3.39.014 3.814.075 5.145.06 1.33.272 2.236.58 3.03.32.82.746 1.516 1.44 2.21a6.117 6.117 0 0 0 2.21 1.44c.794.308 1.7.52 3.03.58 1.33.06 1.756.075 5.145.075 3.39 0 3.815-.014 5.146-.075 1.328-.06 2.236-.272 3.03-.58a6.117 6.117 0 0 0 2.21-1.44 6.118 6.118 0 0 0 1.44-2.21c.308-.794.52-1.7.58-3.03.06-1.33.075-1.756.075-5.145 0-3.39-.014-3.815-.074-5.146-.06-1.328-.272-2.235-.58-3.03a6.118 6.118 0 0 0-1.44-2.21 6.117 6.117 0 0 0-2.21-1.44c-.794-.308-1.702-.52-3.03-.58C16.296.054 15.87.04 12.48.04m0 2.248c3.333 0 3.727.013 5.043.073 1.217.056 1.878.26 2.318.43.583.227 1 .497 1.436.934.437.437.707.853.933 1.435.17.44.374 1.1.43 2.317.06 1.316.072 1.71.072 5.043 0 3.332-.013 3.727-.073 5.043-.056 1.217-.26 1.877-.43 2.317a3.865 3.865 0 0 1-.934 1.435 3.865 3.865 0 0 1-1.435.934c-.44.17-1.1.373-2.317.43-1.315.06-1.71.07-5.043.07-3.332 0-3.727-.01-5.043-.07-1.217-.057-1.877-.26-2.317-.43a3.866 3.866 0 0 1-1.435-.935 3.87 3.87 0 0 1-.934-1.435c-.17-.44-.373-1.1-.43-2.317-.06-1.316-.07-1.71-.07-5.043s.01-3.727.07-5.043c.057-1.217.26-1.878.43-2.318.228-.583.498-1 .935-1.436A3.867 3.867 0 0 1 5.12 2.79c.44-.17 1.1-.374 2.317-.43 1.316-.06 1.71-.072 5.043-.072" fill="#202334" mask="url(#b)"/>
        </g>
    </g>
</svg>
