<svg width="15" height="14" viewBox="0 0 15 14" xmlns="http://www.w3.org/2000/svg">
    <title>
        time-reverse
    </title>
    <path d="M8.64 2.926c-.36 0-.65.322-.65.718V7c0 .19.082.372.203.507L9.595 9.05a.63.63 0 0 0 .466.21c.167 0 .335-.07.463-.21.255-.278.242-.733-.012-1.014L9.294 6.704v-3.06c0-.396-.292-.718-.652-.718M15 7c0 3.86-2.84 7-6.33 7a5.882 5.882 0 0 1-3.583-1.23c-.297-.224-.37-.67-.166-.997.206-.327.612-.408.908-.183.838.637 1.82.974 2.842.974 2.77 0 5.026-2.496 5.026-5.564S11.44 1.436 8.67 1.436c-2.71 0-4.925 2.388-5.02 5.363l1.52-1.684a.61.61 0 0 1 .922-.002.77.77 0 0 1 .002 1.015l-2.49 2.754a.624.624 0 0 1-.462.212.624.624 0 0 1-.462-.212L.19 6.13a.77.77 0 0 1 .002-1.016.61.61 0 0 1 .922.002l1.244 1.376C2.595 2.87 5.334 0 8.67 0 12.16 0 15 3.14 15 7" fill="#9B9B9B" fill-rule="evenodd"/>
</svg>
