<svg width="15" height="14" viewBox="0 0 15 14" xmlns="http://www.w3.org/2000/svg">
    <title>
        Group 5
    </title>
    <g fill="#9B9B9B" fill-rule="evenodd">
        <path d="M6.33.17c-.486 0-.067.157-.328.197-.26.04.345-.04-.438.12-.784.167-.942 1.238-.98 1.635-.037.396-.046.515-.027 1.11.074.357-.3.357-.3.357-.475-.03-.55 1.526-.55 1.526.066.387-.027.575.672.873.326 1 1.175 1.506 1.175 1.506s.037.644.055 1.1c-.074-.03-.13 1.18-2.285 1.517C1.162 10.45.75 11.193.34 11.61-.07 12.027.006 14 .006 14l8.916-.04a4.618 4.618 0 0 1-1.472-3.4 4.6 4.6 0 0 1 .97-2.846l.01-.14s.7-.614 1.025-1.615c.522-.348.718-.398.81-.804 0 0 .234-1.527-.325-1.527 0 0-.644.04-.57-.318.076-.357.048-.476.01-.873C9.34 2.04 9.565.9 8.78.743c-.53-.1-.362.06-.623.02C7.895.723 7.587 0 7.103 0L6.33.17z"/>
        <path d="M11.72 7c-1.81 0-3.283 1.57-3.283 3.5S9.91 14 11.72 14c1.808 0 3.28-1.57 3.28-3.5S13.528 7 11.72 7zm.467 4v2h-.937v-2H9.375v-1h1.875V8h.938v2h1.874v1h-1.874z"/>
    </g>
</svg>
