<svg width="12" height="12" viewBox="0 0 12 12" xmlns="http://www.w3.org/2000/svg">
    <title>
        exitLightbox
    </title>
    <path d="M11.054 2.56c.586-.588.58-1.532-.005-2.118A1.493 1.493 0 0 0 8.93.437L5.746 3.624 2.56.437A1.494 1.494 0 0 0 .44.442 1.493 1.493 0 0 0 .437 2.56l3.187 3.186L.437 8.932c-.586.587-.58 1.53.005 2.117.59.59 1.534.587 2.117.004l3.186-3.187 3.186 3.187c.587.586 1.53.58 2.117-.005.59-.59.587-1.534.004-2.118L7.867 5.746l3.187-3.187z" fill="#202334" fill-rule="evenodd"/>
</svg>
