<?xml version="1.0" encoding="UTF-8" standalone="no"?>
<svg width="15px" height="13px" viewBox="0 0 15 13" version="1.1" xmlns="http://www.w3.org/2000/svg" xmlns:xlink="http://www.w3.org/1999/xlink">
    <!-- Generator: Sketch 3.8.2 (29753) - http://www.bohemiancoding.com/sketch -->
    <title>EmailCreate</title>
    <desc>Created with Sketch.</desc>
    <defs></defs>
    <g id="Page-1" stroke="none" stroke-width="1" fill="none" fill-rule="evenodd" fill-opacity="0.3">
        <g id="2-Sign-Up" transform="translate(-18.000000, -233.000000)" fill="#000000">
            <g id="Information" transform="translate(15.000000, 180.000000)">
                <g id="emailCreate" transform="translate(3.000000, 53.000000)">
                    <g id="Email-icon">
                        <path d="M1.36363636,1.5351348 C1.36363636,1.53362926 1.36736722,1.52941176 1.35804757,1.52941176 L13.6419524,1.52941176 C13.6371775,1.52941176 13.6363636,1.52848589 13.6363636,1.5351348 L13.6363636,10.7120886 C13.6363636,11.1288604 13.3311134,11.4705882 12.9608215,11.4705882 L2.0391785,11.4705882 C1.66663159,11.4705882 1.36363636,11.1303837 1.36363636,10.7120886 L1.36363636,1.5351348 L1.36363636,1.5351348 Z M0,1.5351348 L0,10.7120886 C0,11.9746775 0.913179503,13 2.0391785,13 L12.9608215,13 C14.0836662,13 15,11.9741636 15,10.7120886 L15,1.5351348 C15,0.688643133 14.394666,0 13.6419524,0 L1.35804757,0 C0.611837261,0 0,0.691642896 0,1.5351348 L0,1.5351348 Z M0.229938751,1.3565246 L6.04296588,7.21595133 C6.8615705,8.04109005 8.16684803,8.03918986 8.98196772,7.21522972 L14.7785274,1.35580299 L13.8655875,0.219722634 L8.06902788,6.07914936 C7.77191785,6.37948172 7.2538941,6.38023585 6.95447597,6.07842775 L1.14144884,0.219001023 L0.229938751,1.3565246 L0.229938751,1.3565246 Z" id="Shape"></path>
                    </g>
                </g>
            </g>
        </g>
    </g>
</svg>