<svg width="15" height="15" viewBox="0 0 15 15" xmlns="http://www.w3.org/2000/svg">
    <title>
        gear
    </title>
    <path d="M6.908 13.83c.148.01.323.016.503.016h.09c.182 0 .356-.007.504-.017l.153-1.076a.577.577 0 0 1 .442-.48c.505-.117.987-.313 1.433-.582a.578.578 0 0 1 .667.05l.857.652c.112-.098.24-.216.368-.344l.062-.063c.128-.128.247-.257.345-.37l-.65-.864a.577.577 0 0 1-.027-.654c.27-.43.47-.896.594-1.386a.576.576 0 0 1 .488-.473l1.09-.148a7.98 7.98 0 0 0 .018-.503V7.5c0-.18-.008-.356-.017-.505l-1.073-.153a.577.577 0 0 1-.48-.44 4.86 4.86 0 0 0-.573-1.42.576.576 0 0 1 .024-.662l.666-.877a7.904 7.904 0 0 0-.344-.368l-.063-.062a7.93 7.93 0 0 0-.37-.345l-.867.652a.577.577 0 0 1-.687.005 4.862 4.862 0 0 0-1.388-.58.577.577 0 0 1-.434-.483l-.148-1.09a7.864 7.864 0 0 0-.503-.018H7.5c-.18 0-.356.008-.505.017l-.152 1.076a.577.577 0 0 1-.483.49c-.49.116-.96.308-1.393.57a.576.576 0 0 1-.67-.053l-.854-.647c-.112.098-.24.216-.368.344l-.062.063c-.13.128-.247.257-.345.37l.652.867a.577.577 0 0 1 0 .693 4.86 4.86 0 0 0-.578 1.382.577.577 0 0 1-.482.434l-1.09.148a7.87 7.87 0 0 0-.016.503v.09c0 .18.008.356.017.505l1.076.152a.577.577 0 0 1 .49.49c0 .008.002.015.003.022.116.48.306.94.563 1.365a.577.577 0 0 1-.053.672l-.644.85c.098.11.216.24.344.368l.062.062c.13.13.258.247.37.345l.867-.652a.577.577 0 0 1 .717.02c.423.255.88.444 1.357.562.23.056.402.247.434.48l.15 1.087zM7.5 15h-.09c-.565 0-1.063-.063-1.084-.066a.577.577 0 0 1-.498-.493l-.16-1.165a6.004 6.004 0 0 1-1.036-.44l-.922.694a.577.577 0 0 1-.7-.006 9.534 9.534 0 0 1-.813-.72l-.063-.064c-.4-.4-.708-.796-.72-.813a.577.577 0 0 1-.005-.7l.712-.942a6.016 6.016 0 0 1-.422-1.04L.557 9.083a.577.577 0 0 1-.49-.498C.062 8.565 0 8.065 0 7.5v-.09c0-.565.063-1.063.066-1.084a.577.577 0 0 1 .493-.498l1.17-.16c.112-.358.26-.703.437-1.033L1.47 3.71a.577.577 0 0 1 .006-.7 9.55 9.55 0 0 1 .72-.813l.063-.063c.4-.4.796-.708.813-.72a.577.577 0 0 1 .702-.004l.942.714c.332-.172.68-.313 1.037-.42L5.917.557a.577.577 0 0 1 .498-.49C6.435.062 6.935 0 7.5 0h.09c.565 0 1.063.063 1.084.066.26.033.463.235.498.494l.16 1.17c.357.114.702.26 1.032.437l.926-.696a.577.577 0 0 1 .7.006c.017.013.413.32.813.72l.063.064c.4.4.708.797.72.813.16.207.162.494.004.702l-.714.94c.173.333.314.68.422 1.04l1.145.162c.257.037.458.24.49.498.004.02.067.52.067 1.085v.09c0 .565-.063 1.063-.066 1.084a.577.577 0 0 1-.494.5l-1.167.158c-.114.358-.26.703-.438 1.034l.694.925a.577.577 0 0 1-.006.7c-.013.017-.32.413-.72.813l-.064.063c-.4.4-.797.708-.813.72a.577.577 0 0 1-.702.004l-.943-.715a6.01 6.01 0 0 1-1.036.42l-.163 1.148a.577.577 0 0 1-.498.49c-.02.004-.52.067-1.085.067zm0-9.487c-1.097 0-1.99.893-1.99 1.99s.893 1.99 1.99 1.99a1.99 1.99 0 0 0 1.99-1.99c0-1.097-.893-1.99-1.99-1.99zm0 5.133a3.147 3.147 0 0 1-3.143-3.143A3.147 3.147 0 0 1 7.5 4.36a3.147 3.147 0 0 1 3.143 3.143A3.147 3.147 0 0 1 7.5 10.646z" fill="#9B9B9B" fill-rule="evenodd"/>
</svg>
