<svg width="25" height="20" viewBox="0 0 25 20" xmlns="http://www.w3.org/2000/svg">
    <title>
        hamburger
    </title>
    <g fill="#202334" fill-rule="evenodd">
        <path d="M0 1.343C.696 1.343 1.25.748 1.25 0h22.5c0 .748.554 1.343 1.25 1.343v1.15c-.696 0-1.25.596-1.25 1.345H1.25c0-.75-.554-1.344-1.25-1.344v-1.15zM0 9.018c.696 0 1.25-.595 1.25-1.343h22.5c0 .748.554 1.343 1.25 1.343v1.15c-.696 0-1.25.596-1.25 1.345H1.25c0-.75-.554-1.344-1.25-1.344V9.017zM0 16.693c.696 0 1.25-.595 1.25-1.343h22.5c0 .748.554 1.343 1.25 1.343v1.15c-.696 0-1.25.596-1.25 1.345H1.25c0-.75-.554-1.344-1.25-1.344v-1.15z"/>
    </g>
</svg>
