<svg width="25" height="20" viewBox="0 0 25 20" xmlns="http://www.w3.org/2000/svg">
    <title>
        hamburger white
    </title>
    <g fill="#FFF" fill-rule="evenodd">
        <path d="M0 1.342C.696 1.342 1.25.747 1.25 0h22.5c0 .748.554 1.342 1.25 1.342v1.15c-.696 0-1.25.594-1.25 1.34H1.25c0-.746-.554-1.34-1.25-1.34v-1.15zM0 8.842c.696 0 1.25-.595 1.25-1.342h22.5c0 .748.554 1.342 1.25 1.342v1.15c-.696 0-1.25.594-1.25 1.34H1.25c0-.746-.554-1.34-1.25-1.34v-1.15zM1.25 15.833h22.5c0 .748.554 1.342 1.25 1.342v1.15c-.696 0-1.25.594-1.25 1.342H1.25c0-.748-.554-1.342-1.25-1.342v-1.15c.696 0 1.25-.594 1.25-1.342z"/>
    </g>
</svg>
