<svg width="25" height="25" viewBox="0 0 25 25" xmlns="http://www.w3.org/2000/svg" xmlns:xlink="http://www.w3.org/1999/xlink">
    <title>
        instagram
    </title>
    <defs>
        <path id="a" d="M0 24.997h24.96V.04H0z"/>
    </defs>
    <g fill="none" fill-rule="evenodd">
        <g>
            <mask id="b" fill="#fff">
                <use xlink:href="#a"/>
            </mask>
            <path d="M12.48.04c-3.39 0-3.814.014-5.145.074-1.33.06-2.236.272-3.03.58-.82.32-1.516.746-2.21 1.44a6.117 6.117 0 0 0-1.44 2.21c-.308.795-.52 1.702-.58 3.03C.015 8.704 0 9.13 0 12.52c0 3.39.014 3.814.075 5.145.06 1.33.272 2.236.58 3.03.32.82.746 1.516 1.44 2.21a6.117 6.117 0 0 0 2.21 1.44c.794.308 1.7.52 3.03.58 1.33.06 1.756.075 5.145.075 3.39 0 3.815-.014 5.146-.075 1.328-.06 2.236-.272 3.03-.58a6.117 6.117 0 0 0 2.21-1.44 6.118 6.118 0 0 0 1.44-2.21c.308-.794.52-1.7.58-3.03.06-1.33.075-1.756.075-5.145 0-3.39-.014-3.815-.074-5.146-.06-1.328-.272-2.235-.58-3.03a6.118 6.118 0 0 0-1.44-2.21 6.117 6.117 0 0 0-2.21-1.44c-.794-.308-1.702-.52-3.03-.58C16.296.054 15.87.04 12.48.04m0 2.248c3.333 0 3.727.013 5.043.073 1.217.056 1.878.26 2.318.43.583.227 1 .497 1.436.934.437.437.707.853.933 1.435.17.44.374 1.1.43 2.317.06 1.316.072 1.71.072 5.043 0 3.332-.013 3.727-.073 5.043-.056 1.217-.26 1.877-.43 2.317a3.865 3.865 0 0 1-.934 1.435 3.865 3.865 0 0 1-1.435.934c-.44.17-1.1.373-2.317.43-1.315.06-1.71.07-5.043.07-3.332 0-3.727-.01-5.043-.07-1.217-.057-1.877-.26-2.317-.43a3.866 3.866 0 0 1-1.435-.935 3.87 3.87 0 0 1-.934-1.435c-.17-.44-.373-1.1-.43-2.317-.06-1.316-.07-1.71-.07-5.043s.01-3.727.07-5.043c.057-1.217.26-1.878.43-2.318.228-.583.498-1 .935-1.436A3.867 3.867 0 0 1 5.12 2.79c.44-.17 1.1-.374 2.317-.43 1.316-.06 1.71-.072 5.043-.072" fill="#202334" mask="url(#b)"/>
        </g>
        <path d="M12.48 16.68a4.16 4.16 0 1 1 0-8.32 4.16 4.16 0 0 1 0 8.32m0-10.57a6.41 6.41 0 1 0 0 12.818 6.41 6.41 0 0 0 0-12.817M20.64 5.858a1.498 1.498 0 1 1-2.995 0 1.498 1.498 0 0 1 2.995 0" fill="#202334"/>
    </g>
</svg>
