<svg width="25" height="25" viewBox="0 0 25 25" xmlns="http://www.w3.org/2000/svg">
    <title>
        linkedin
    </title>
    <path d="M23.55 1.45C22.637.54 21.54.086 20.26.086H4.74C3.46.085 2.363.54 1.45 1.45.54 2.363.086 3.46.086 4.74v15.52c0 1.282.455 2.378 1.366 3.29.912.91 2.008 1.365 3.29 1.365h15.52c1.282 0 2.378-.455 3.29-1.366.91-.912 1.365-2.008 1.365-3.29V4.74c0-1.282-.456-2.378-1.366-3.29zM7.65 20.875H3.916V9.654H7.65v11.22zM7.31 7.578c-.387.372-.9.558-1.535.558H5.76c-.615 0-1.113-.186-1.496-.558a1.85 1.85 0 0 1-.574-1.382c0-.56.197-1.024.59-1.39.393-.367.903-.55 1.528-.55s1.126.183 1.503.55c.378.366.572.83.583 1.39 0 .55-.194 1.01-.582 1.382zm13.774 13.296H17.35v-5.998c0-1.69-.625-2.538-1.876-2.538-.474 0-.872.132-1.196.397a2.49 2.49 0 0 0-.727.96c-.075.195-.112.497-.112.907v6.272H9.704c.032-6.768.032-10.508 0-11.22h3.734v1.585c.785-1.23 1.9-1.844 3.346-1.844 1.293 0 2.333.426 3.12 1.277.787.85 1.18 2.107 1.18 3.766v6.434z" fill="#202334" fill-rule="evenodd"/>
</svg>
