<?xml version="1.0" encoding="UTF-8" standalone="no"?>
<svg width="15px" height="17px" viewBox="0 0 15 17" version="1.1" xmlns="http://www.w3.org/2000/svg" xmlns:xlink="http://www.w3.org/1999/xlink">
    <!-- Generator: Sketch 3.8.2 (29753) - http://www.bohemiancoding.com/sketch -->
    <title>lockCreate</title>
    <desc>Created with Sketch.</desc>
    <defs></defs>
    <g id="Page-1" stroke="none" stroke-width="1" fill="none" fill-rule="evenodd" fill-opacity="0.3">
        <g id="2-Sign-Up" transform="translate(-18.000000, -284.000000)" fill="#000000">
            <g id="Information" transform="translate(15.000000, 180.000000)">
                <g id="lockCreate" transform="translate(3.000000, 104.000000)">
                    <g id="Password-icon">
                        <path d="M1.5,6.37561742 L1.5,6.37561742 L1.5,16.2910492 C1.5,15.9039169 1.16282557,15.5833333 0.743852332,15.5833333 L14.2561477,15.5833333 C13.8325768,15.5833333 13.5,15.8978392 13.5,16.2910492 L13.5,6.37561742 C13.5,6.76274974 13.8371744,7.08333333 14.2561477,7.08333333 L0.743852332,7.08333333 C1.16742318,7.08333333 1.5,6.76882744 1.5,6.37561742 L1.5,6.37561742 L1.5,6.37561742 Z M0,6.37561742 C0,5.98407473 0.341479182,5.66666667 0.743852332,5.66666667 L14.2561477,5.66666667 C14.666966,5.66666667 15,5.98161353 15,6.37561742 L15,16.2910492 C15,16.6825919 14.6585208,17 14.2561477,17 L0.743852332,17 C0.333034033,17 0,16.6850531 0,16.2910492 L0,6.37561742 L0,6.37561742 Z M3.75,3.54166667 L3.75,7.08333333 L2.25,5.66666667 L12.75,5.66666667 L11.25,7.08333333 L11.25,3.54166667 C11.25,2.37010608 10.2422618,1.41666667 9.00372819,1.41666667 L5.99627181,1.41666667 C4.75490046,1.41666667 3.75,2.36701612 3.75,3.54166667 L3.75,3.54166667 Z M2.25,3.54166667 C2.25,1.58565818 3.92536659,0 5.99627181,0 L9.00372819,0 C11.072737,0 12.75,1.58963826 12.75,3.54166667 L12.75,7.08333333 L2.25,7.08333333 L2.25,3.54166667 L2.25,3.54166667 L2.25,3.54166667 Z M8.25,11.8521419 C8.69835103,11.6071936 9,11.1493667 9,10.625 C9,9.8425966 8.32842712,9.20833333 7.5,9.20833333 C6.67157288,9.20833333 6,9.8425966 6,10.625 C6,11.1493667 6.30164897,11.6071936 6.75,11.8521419 L6.75,13.4583333 L8.25,13.4583333 L8.25,11.8521419 L8.25,11.8521419 Z" id="Shape"></path>
                    </g>
                </g>
            </g>
        </g>
    </g>
</svg>