<svg width="15" height="15" viewBox="0 0 15 15" xmlns="http://www.w3.org/2000/svg">
    <title>
        Group 5
    </title>
    <g fill="#202334" fill-rule="evenodd">
        <path d="M6.427 10.91c2.4 0 4.343-2.138 4.343-4.774S8.826 1.364 6.427 1.364c-2.398 0-4.342 2.136-4.342 4.772S4.03 10.91 6.427 10.91zm0 1.363c-3.083 0-5.583-2.748-5.583-6.137C.844 2.746 3.344 0 6.427 0 9.51 0 12.01 2.747 12.01 6.136c0 3.39-2.5 6.137-5.583 6.137z"/>
        <path d="M10.288 9.394l4.032 4.43-.877.966-4.033-4.432.878-.964z"/>
    </g>
</svg>
