<?xml version="1.0" encoding="UTF-8" standalone="no"?>
<svg width="15px" height="15px" viewBox="0 0 15 15" version="1.1" xmlns="http://www.w3.org/2000/svg" xmlns:xlink="http://www.w3.org/1999/xlink">
    <!-- Generator: Sketch 3.8.2 (29753) - http://www.bohemiancoding.com/sketch -->
    <title>loup</title>
    <desc>Created with Sketch.</desc>
    <defs></defs>
    <g id="Page-1" stroke="none" stroke-width="1" fill="none" fill-rule="evenodd">
        <g id="13--Profile-mentor/staff-(mobile)-Copy-2" transform="translate(-270.000000, -491.000000)" fill="#9B9B9B">
            <g id="search-input" transform="translate(26.000000, 479.000000)">
                <g id="loup" transform="translate(244.000000, 12.000000)">
                    <g id="Group-5" transform="translate(0.676645, 0.000000)">
                        <path d="M5.5831824,10.9090909 L5.5831824,10.9090909 C7.98146523,10.9090909 9.92565761,8.77226812 9.92565761,6.13636364 C9.92565761,3.50045915 7.98146523,1.36363636 5.5831824,1.36363636 C3.18489957,1.36363636 1.2407072,3.50045915 1.2407072,6.13636364 C1.2407072,8.77226812 3.18489957,10.9090909 5.5831824,10.9090909 L5.5831824,10.9090909 L5.5831824,10.9090909 L5.5831824,10.9090909 L5.5831824,10.9090909 L5.5831824,10.9090909 Z M5.5831824,12.2727273 L5.5831824,12.2727273 C2.49967591,12.2727273 0,9.52538369 0,6.13636364 C0,2.74734358 2.49967591,0 5.5831824,0 C8.6666889,0 11.1663648,2.74734358 11.1663648,6.13636364 C11.1663648,9.52538369 8.6666889,12.2727273 5.5831824,12.2727273 L5.5831824,12.2727273 L5.5831824,12.2727273 L5.5831824,12.2727273 L5.5831824,12.2727273 L5.5831824,12.2727273 Z" id="Shape"></path>
                        <polygon id="Shape" points="9.44347647 9.39359197 13.4757749 13.8254101 12.5984624 14.7896467 8.56616399 10.3578285 9.44347647 9.39359197 9.44347647 9.39359197"></polygon>
                    </g>
                </g>
            </g>
        </g>
    </g>
</svg>