<svg width="15" height="15" viewBox="0 0 15 15" xmlns="http://www.w3.org/2000/svg">
    <title>
        to-do
    </title>
    <path d="M4.328 9.56h6.343c.396 0 .716-.295.716-.66 0-.363-.32-.658-.715-.658H4.33c-.394 0-.714.295-.714.66 0 .363.32.658.714.658M6.91 2.473h1.18c.393 0 .713-.296.713-.66 0-.364-.32-.66-.714-.66H6.91c-.393 0-.713.296-.713.66 0 .364.32.66.714.66m7.376-1.32h-1.49c-.396 0-.715.296-.715.66 0 .364.32.66.715.66h.776V13.68H1.43V2.474h.775c.394 0 .714-.296.714-.66 0-.364-.32-.66-.715-.66H.715c-.395 0-.715.356-.715.72V14.34c0 .365.32.66.714.66h13.572c.394 0 .714-.295.714-.66V1.874c0-.364-.32-.72-.714-.72m-9.958 5.44h6.343c.396 0 .716-.295.716-.66 0-.363-.32-.658-.715-.658H4.33c-.394 0-.714.295-.714.66 0 .363.32.658.714.658m6.03-2.836c.492 0 .892-.37.892-.825V.824c0-.455-.4-.824-.893-.824s-.893.37-.893.824v2.108c0 .456.4.825.893.825M3.75 2.932V.824c0-.455.4-.824.893-.824s.893.37.893.824v2.108c0 .456-.4.825-.893.825s-.893-.37-.893-.825" fill="#9B9B9B" fill-rule="evenodd"/>
</svg>
