<svg width="12" height="15" viewBox="0 0 12 15" xmlns="http://www.w3.org/2000/svg">
    <title>
        Outline
    </title>
    <g transform="translate(.11)" fill="#202334" fill-rule="evenodd">
        <path d="M2.196 5.938v4.687l-1.098-1.25H9.88l-1.097 1.25V5.937C8.783 4.043 7.428 2.5 5.76 2.5h-.54c-1.673 0-3.024 1.538-3.024 3.438zm-1.098 0c0-2.59 1.84-4.688 4.12-4.688h.54c2.277 0 4.123 2.104 4.123 4.688v4.687H1.1V5.937z"/>
        <rect x="4.94" width="1.098" height="2.5" rx="27"/>
        <path d="M.976 12.428L0 11.855h1.098v.65c0-.35-.245-.63-.554-.63h9.89c-.308 0-.553.278-.553.63v-.59h1.1l-.99.54-1.074-2.538.99.708H1.12l.976-.678-1.122 2.48zM0 11.855l1.122-2.48h8.783l1.074 2.54v.59c0 .343-.25.62-.546.62H.544c-.3 0-.544-.282-.544-.62v-.65zm3.842 1.27C3.842 14.16 4.58 15 5.49 15c.91 0 1.646-.84 1.646-1.875H3.842z"/>
    </g>
</svg>
