<?xml version="1.0" encoding="UTF-8" standalone="no"?>
<svg width="18px" height="19px" viewBox="0 0 18 19" version="1.1" xmlns="http://www.w3.org/2000/svg" xmlns:xlink="http://www.w3.org/1999/xlink">
    <!-- Generator: Sketch 3.8.2 (29753) - http://www.bohemiancoding.com/sketch -->
    <title>personCreate</title>
    <desc>Created with Sketch.</desc>
    <defs></defs>
    <g id="Page-1" stroke="none" stroke-width="1" fill="none" fill-rule="evenodd" opacity="0.3">
        <g id="2-Sign-Up" transform="translate(-18.000000, -181.000000)">
            <g id="Information" transform="translate(15.000000, 180.000000)">
                <g id="Use-icon" transform="translate(3.000000, 1.000000)">
                    <g id="icon_ios_user">
                        <path d="M9,18.24 L9,18.24 C13.5729177,18.24 17.28,14.3269687 17.28,9.5 C17.28,4.67303129 13.5729177,0.76 9,0.76 C4.42708227,0.76 0.72,4.67303129 0.72,9.5 C0.72,14.3269687 4.42708227,18.24 9,18.24 L9,18.24 Z M9,19 L9,19 C4.02943725,19 0,14.7467051 0,9.5 C0,4.25329488 4.02943725,0 9,0 C13.9705627,0 18,4.25329488 18,9.5 C18,14.7467051 13.9705627,19 9,19 L9,19 Z" id="Shape" fill="#000000"></path>
                        <path d="M3.01817759,16.5981307 C3.15883395,16.4250653 3.35936088,16.2654504 3.64294801,16.1426628 C4.67444867,15.6960435 5.75735689,15.7074029 6.82053772,15.1969207 C6.91029768,14.4338071 6.96512626,13.5163287 6.92964596,12.6659264 C6.77758526,12.4417661 6.64815547,12.2240839 6.54403443,12.0489548 C6.10917927,11.317539 6.00271733,10.573079 5.99484393,10.0621357 C5.86432922,9.96378131 5.74140838,9.85942185 5.64972412,9.75816309 C5.31117294,9.38425733 5.38962275,8.38341591 5.48604347,8.11459333 C5.52239522,8.01324406 5.60540614,7.93513142 5.70916101,7.89719065 C5.62399683,7.5772424 5.55286003,7.18747696 5.55286003,6.77813201 C5.55286003,5.75835334 5.50622587,5.17196361 5.76898134,4.59753875 C6.31695631,3.39957911 7.74,2.68854118 9.18,2.68854118 C9.1806445,2.74611891 9.18124292,2.81108644 9.18179773,2.88294195 C9.18524894,2.81215915 9.18735621,2.74721602 9.18801299,2.68854118 C10.268013,2.68854118 11.6910567,3.39957911 12.2390316,4.59753875 C12.5017871,5.17196361 12.455153,5.75835334 12.455153,6.77813201 C12.455153,7.18747696 12.3840162,7.5772424 12.298852,7.89719065 C12.4026068,7.93513142 12.4856178,8.01324406 12.5219695,8.11459333 C12.6183902,8.38341591 12.69684,9.38425733 12.3582889,9.75816309 C12.2666046,9.85942185 12.1436838,9.96378131 12.0131691,10.0621357 C12.0052957,10.573079 11.8988337,11.317539 11.4639786,12.0489548 C11.3598575,12.2240839 11.2304277,12.4417661 11.078367,12.6659264 C11.0428867,13.5163287 11.0977153,14.4338071 11.1874753,15.1969207 C12.2506561,15.7074029 13.3335643,15.6960435 14.365065,16.1426628 C14.6463221,16.2644415 14.8458783,16.4224449 14.9863563,16.5938676 C13.3957284,18.09051 11.2984855,19 9,19 C6.70369767,19 4.60825585,18.0922369 3.01817759,16.5981307 Z" id="Path-155" fill="#4A4A4A"></path>
                    </g>
                </g>
            </g>
        </g>
    </g>
</svg>