<svg width="16" height="15" viewBox="0 0 16 15" xmlns="http://www.w3.org/2000/svg">
    <title>
        Group 6
    </title>
    <g fill="#202334" fill-rule="evenodd">
        <path d="M.058 7.852C.058 11.804 3.406 15 7.544 15s7.485-3.196 7.485-7.148c0-3.237-2.257-5.974-5.347-6.852v2.165c1.892.796 3.208 2.594 3.208 4.687 0 2.818-2.395 5.106-5.346 5.106-2.952 0-5.347-2.288-5.347-5.106 0-2.093 1.315-3.89 3.208-4.687V1C2.315 1.878.058 4.615.058 7.852z"/>
        <path d="M6.475 1c0-.5.534-1 1.07-1 .534 0 1.068.5 1.068 1v6c0 .5-.534 1-1.07 1-.534 0-1.068-.5-1.068-1V1z"/>
    </g>
</svg>
