<svg width="17" height="15" viewBox="0 0 17 15" xmlns="http://www.w3.org/2000/svg">
    <title>
        user-group
    </title>
    <path d="M13.857 6.743c0-.965-.666-1.75-1.484-1.75-.2 0-.395.046-.578.137-.285.143-.614-.015-.734-.35-.12-.338.014-.726.3-.87a2.25 2.25 0 0 1 1.013-.24c1.436 0 2.605 1.378 2.605 3.073 0 1.694-1.17 3.073-2.605 3.073-.745 0-1.457-.38-1.95-1.038a.748.748 0 0 1 .047-.934c.232-.242.586-.217.79.057.283.377.688.592 1.113.592.818 0 1.484-.785 1.484-1.75zM17 12.583c0 .365-.25.652-.56.652h-2.498c-.31 0-.56-.296-.56-.66 0-.367.25-.663.56-.663h1.664c-.27-.44-.726-.79-1.283-1.15-.27-.177-.37-.57-.22-.89.148-.32.49-.437.76-.26.798.516 2.137 1.583 2.137 2.97zm-14.9.652c.635-.563 1.698-1.198 2.852-1.67l1.277.915a.65.65 0 0 0 .774 0l1.277-.914c1.155.47 2.217 1.106 2.852 1.67h-9.03zM8.415 9.76a.65.65 0 0 0-.613.085l-1.184.85-1.184-.85a.65.65 0 0 0-.614-.086C3.688 10.18 0 11.746 0 14.117c0 .487.335.882.747.882h11.738c.413 0 .748-.395.748-.882 0-2.37-3.688-3.936-4.82-4.36zM6.616 1.764c1.355 0 2.457 1.3 2.457 2.897 0 1.598-1.102 2.897-2.457 2.897-1.354 0-2.456-1.3-2.456-2.898s1.102-2.897 2.456-2.897zm0 7.56c2.18 0 3.95-2.092 3.95-4.663 0-2.57-1.77-4.662-3.95-4.662-2.178 0-3.95 2.09-3.95 4.662 0 2.57 1.772 4.662 3.95 4.662z" fill="#52C484" fill-rule="evenodd"/>
</svg>
