<?xml version="1.0" encoding="UTF-8" standalone="no"?>
<svg width="100px" height="100px" viewBox="0 0 100 100" version="1.1" xmlns="http://www.w3.org/2000/svg" xmlns:xlink="http://www.w3.org/1999/xlink">
    <!-- Generator: Sketch 3.8.2 (29753) - http://www.bohemiancoding.com/sketch -->
    <title>profile picture</title>
    <desc>Created with Sketch.</desc>
    <defs>
        <path d="M9.77068794,0.238987849 L7.25822532,3.19391512 L2.79162512,3.19391512 C1.25623131,3.19391512 0,4.5236324 0,6.1488424 L0,23.8784061 C0,25.5036161 1.25623131,26.8333333 2.79162512,26.8333333 L25.1246261,26.8333333 C26.6600199,26.8333333 27.9162512,25.5036161 27.9162512,23.8784061 L27.9162512,6.1488424 C27.9162512,4.5236324 26.6600199,3.19391512 25.1246261,3.19391512 L20.6580259,3.19391512 L18.1455633,0.238987849 L9.77068794,0.238987849 L9.77068794,0.238987849 Z M14.0531184,20.62269 C10.7864518,20.62269 8.21978509,18.0560233 8.21978509,14.7893566 C8.21978509,11.52269 10.7864518,8.95602331 14.0531184,8.95602331 C17.3197851,8.95602331 19.8864518,11.52269 19.8864518,14.7893566 C19.8864518,18.0560233 17.3197851,20.62269 14.0531184,20.62269 L14.0531184,20.62269 Z" id="path-1"></path>
        <mask id="mask-2" maskContentUnits="userSpaceOnUse" maskUnits="objectBoundingBox" x="0" y="0" width="27.9162512" height="26.5943455" fill="white">
            <use xlink:href="#path-1"></use>
        </mask>
    </defs>
    <g id="Page-1" stroke="none" stroke-width="1" fill="none" fill-rule="evenodd">
        <g id="2-Sign-Up" transform="translate(-110.000000, -50.000000)">
            <g id="profile-picture" transform="translate(110.000000, 50.000000)">
                <g id="Group">
                    <path d="M50,100 C77.6142375,100 100,77.6142375 100,50 C100,22.3857625 77.6142375,0 50,0 C22.3857625,0 0,22.3857625 0,50 C0,77.6142375 22.3857625,100 50,100 Z" id="bg" fill="#C2C2C2"></path>
                    <g id="camera" transform="translate(35.416667, 35.416667)">
                        <g id="group" transform="translate(0.583333, 1.166667)" stroke="#FFFFFF" stroke-width="5.33333333">
                            <use id="shape" mask="url(#mask-2)" xlink:href="#path-1"></use>
                        </g>
                        <rect id="bounds" x="0" y="0" width="29.1666667" height="29.1666667"></rect>
                    </g>
                </g>
            </g>
        </g>
    </g>
</svg>