<?xml version="1.0" encoding="utf-8"?>
<!-- Generated by IcoMoon.io -->
<!DOCTYPE svg PUBLIC "-//W3C//DTD SVG 1.1//EN" "http://www.w3.org/Graphics/SVG/1.1/DTD/svg11.dtd">
<svg version="1.1" xmlns="http://www.w3.org/2000/svg" xmlns:xlink="http://www.w3.org/1999/xlink" width="100%" height="200" viewBox="0 0 2100 200">

<svg id="icon-angellist" width="32" height="32" viewBox="0 0 32 32" x="0" y="0">
<g fill="none" fill-rule="evenodd">
        <path d="M14.986 7.605l-1.087 3.13 1.116.2c1.05-2.868 1.573-4.516 1.573-4.94 0-.357-.12-.535-.364-.535-.363 0-.776.715-1.24 2.145zm-2.853 6.553l.315.84c.236-.268.46-.48.677-.64l-.316-.052-.37-.066c-.24-.045-.344-.07-.307-.082zM9.35 5.612c0 .622.505 2.28 1.516 4.97a.977.977 0 0 1 .468-.097c.096 0 .333.016.715.047l-1.156-3.35c-.476-1.398-.868-2.097-1.174-2.097a.304.304 0 0 0-.277.167.728.728 0 0 0-.094.36zm-.756 7.24c0 .228.164.607.49 1.135a9.19 9.19 0 0 0 1.123 1.46c.42.445.738.668.954.668a.32.32 0 0 0 .243-.124.386.386 0 0 0 .11-.257c0-.152-.1-.476-.305-.973a11.517 11.517 0 0 0-.76-1.537 3.586 3.586 0 0 0-.585-.772c-.21-.203-.406-.305-.59-.305-.128 0-.273.086-.435.258-.162.17-.244.32-.244.45zm-1.507 3.195c0 .26.08.59.24.993.374.922.958 1.644 1.75 2.164.792.522 1.686.78 2.686.783 1.444 0 2.658-.54 3.643-1.622.967-1.074 1.45-2.433 1.45-4.073 0-.273-.004-.486-.01-.638a2.852 2.852 0 0 0-.11-.59c-.067-.244-.164-.422-.292-.535-.356-.313-1.03-.552-2.018-.72-.99-.17-1.85-.254-2.58-.254-.235 0-.39.035-.467.104-.078.032-.116.143-.116.334 0 .216.068.406.206.572.136.165.314.293.528.382.217.09.462.164.74.223.277.062.554.1.835.11l.81.04c.263.01.484.01.67 0h.22c.15 0 .278.06.38.18.097.12.156.297.182.526-.177.177-.483.35-.915.514-.387.14-.684.286-.888.44a4.096 4.096 0 0 0-1.034 1.086c-.283.433-.424.87-.424 1.307 0 .197.06.478.176.844.117.366.176.643.176.835l-.028.115a.716.716 0 0 0-.038.135c-.872-.063-1.336-.75-1.392-2.06-.05.012-.18.02-.39.02a1.107 1.107 0 0 1-.366 1.053c-.26.232-.56.348-.903.348-.522 0-1.052-.247-1.588-.744-.537-.497-.806-1.003-.806-1.52 0-.215.105-.428.316-.637.33.406.52.65.572.725.49.66.912.993 1.268.993a.51.51 0 0 0 .253-.08c.092-.055.138-.12.138-.197 0-.216-.28-.676-.836-1.383-.556-.706-.926-1.058-1.11-1.058-.275 0-.496.14-.67.423a1.64 1.64 0 0 0-.26.862zM6 16.133c0-.642.134-1.16.405-1.555.27-.394.704-.673 1.3-.838-.177-.47-.266-.8-.266-.993 0-.394.193-.785.582-1.174.387-.387.776-.582 1.163-.582.185 0 .406.048.668.144C8.817 8.197 8.3 6.394 8.3 5.724c0-.508.13-.923.39-1.244.26-.32.64-.48 1.135-.48.834 0 1.866 1.847 3.1 5.54.038.11.062.183.076.22.04-.1.132-.353.278-.758.147-.404.285-.78.416-1.13.13-.35.3-.755.514-1.216.213-.46.42-.853.616-1.173.197-.32.422-.597.673-.825.25-.23.494-.344.73-.344.45 0 .807.155 1.068.467.26.314.39.7.39 1.165 0 .687-.505 2.435-1.516 5.246.386.097.707.244.958.44.25.198.438.446.558.746.12.298.204.596.248.89.045.296.066.648.066 1.054a7.81 7.81 0 0 1-.448 2.67 6.488 6.488 0 0 1-1.26 2.148 5.724 5.724 0 0 1-2.012 1.43c-.8.35-1.685.525-2.652.525a6.036 6.036 0 0 1-2.127-.4c-.947-.364-1.766-.973-2.46-1.827C6.345 18.01 6 17.1 6 16.133z" fill="#202334"/>
        <g>
            <mask id="b" fill="#fff">
                <use xlink:href="#a"/>
            </mask>
            <path d="M12.48.04c-3.39 0-3.814.014-5.145.074-1.33.06-2.236.272-3.03.58-.82.32-1.516.746-2.21 1.44a6.117 6.117 0 0 0-1.44 2.21c-.308.795-.52 1.702-.58 3.03C.015 8.704 0 9.13 0 12.52c0 3.39.014 3.814.075 5.145.06 1.33.272 2.236.58 3.03.32.82.746 1.516 1.44 2.21a6.117 6.117 0 0 0 2.21 1.44c.794.308 1.7.52 3.03.58 1.33.06 1.756.075 5.145.075 3.39 0 3.815-.014 5.146-.075 1.328-.06 2.236-.272 3.03-.58a6.117 6.117 0 0 0 2.21-1.44 6.118 6.118 0 0 0 1.44-2.21c.308-.794.52-1.7.58-3.03.06-1.33.075-1.756.075-5.145 0-3.39-.014-3.815-.074-5.146-.06-1.328-.272-2.235-.58-3.03a6.118 6.118 0 0 0-1.44-2.21 6.117 6.117 0 0 0-2.21-1.44c-.794-.308-1.702-.52-3.03-.58C16.296.054 15.87.04 12.48.04m0 2.248c3.333 0 3.727.013 5.043.073 1.217.056 1.878.26 2.318.43.583.227 1 .497 1.436.934.437.437.707.853.933 1.435.17.44.374 1.1.43 2.317.06 1.316.072 1.71.072 5.043 0 3.332-.013 3.727-.073 5.043-.056 1.217-.26 1.877-.43 2.317a3.865 3.865 0 0 1-.934 1.435 3.865 3.865 0 0 1-1.435.934c-.44.17-1.1.373-2.317.43-1.315.06-1.71.07-5.043.07-3.332 0-3.727-.01-5.043-.07-1.217-.057-1.877-.26-2.317-.43a3.866 3.866 0 0 1-1.435-.935 3.87 3.87 0 0 1-.934-1.435c-.17-.44-.373-1.1-.43-2.317-.06-1.316-.07-1.71-.07-5.043s.01-3.727.07-5.043c.057-1.217.26-1.878.43-2.318.228-.583.498-1 .935-1.436A3.867 3.867 0 0 1 5.12 2.79c.44-.17 1.1-.374 2.317-.43 1.316-.06 1.71-.072 5.043-.072" fill="#202334" mask="url(#b)"/>
        </g>
    </g>
</svg>
<svg id="icon-availableRoom" width="32" height="32" viewBox="0 0 32 32" x="48" y="0">
	<path fill="#52c584" d="M22.394 10.432s-7.061 12.299-7.181 12.407c-0.179 0.167-0.42 0.27-0.685 0.27-0.284 0-0.541-0.118-0.723-0.308l-4.574-4.224c-0.195-0.183-0.317-0.443-0.317-0.731 0-0.554 0.449-1.003 1.003-1.003 0.31 0 0.588 0.141 0.772 0.363l3.579 3.304 6.394-11.081c0.168-0.332 0.507-0.555 0.897-0.555 0.554 0 1.003 0.449 1.003 1.003 0 0.207-0.063 0.399-0.17 0.558zM16 0c-8.837 0-16 7.163-16 16s7.163 16 16 16c8.837 0 16-7.163 16-16s-7.163-16-16-16z"></path>
</svg>
<svg id="icon-checkSign" width="32" height="32" viewBox="0 0 32 32" x="96" y="0">
	<path fill="#fca20e" d="M9.138 30.816c-0.283 0.146-0.62 0.165-0.96-0.174l-7.746-7.91c-0.685-0.699-0.525-1.62 0.268-2.193 1.015-0.733 2.371-1.927 3.516-3.674 0.536-0.819 1.303-0.874 1.833-0.051l1.911 2.966c0.531 0.823 1.141 1.856 1.469 1.74 0.133-0.047 0.294-0.162 0.486-0.39l15.528-19.519c0.61-0.766 1.47-0.683 1.923 0.184l4.408 8.455c0.453 0.868 0.201 2.068-0.562 2.682l-19.955 16.036c-0.762 0.613-1.601 1.583-2.121 1.849z"></path>
</svg>
<svg id="icon-clockNotificationDelay" width="32" height="32" viewBox="0 0 32 32" x="144" y="0">
	<path fill="#4a4a4a" d="M16 17.28v-11.52h1.28v12.8h-1.28v-1.28h1.28v1.28h-8.96v-1.28h7.68zM16 32c-8.837 0-16-7.163-16-16s7.163-16 16-16c8.837 0 16 7.163 16 16s-7.163 16-16 16zM16 30.72c8.13 0 14.72-6.59 14.72-14.72s-6.59-14.72-14.72-14.72c-8.13 0-14.72 6.59-14.72 14.72s6.59 14.72 14.72 14.72z"></path>
</svg>
<svg id="icon-clockRoomavailability" width="32" height="32" viewBox="0 0 32 32" x="192" y="0">
	<path fill="#9b9b9b" d="M18.436 7.309c0.768 0 1.391 0.687 1.391 1.532v6.528l2.598 2.842c0.542 0.599 0.57 1.57 0.026 2.163-0.273 0.299-0.631 0.448-0.988 0.448-0.394-0.002-0.748-0.174-0.994-0.448l-2.991-3.292c-0.258-0.288-0.433-0.676-0.433-1.082v-7.159c0-0.845 0.619-1.532 1.387-1.532zM32 16c0-8.235-6.059-14.933-13.504-14.933-7.117 0-12.96 6.123-13.466 13.85l-2.655-2.937c-0.239-0.275-0.591-0.45-0.984-0.45-0.391 0-0.742 0.172-0.98 0.445-0.256 0.29-0.412 0.671-0.412 1.088 0 0.415 0.154 0.794 0.406 1.081l5.313 5.872c0.241 0.273 0.592 0.447 0.985 0.451 0.392-0.004 0.743-0.178 0.985-0.452l5.31-5.873c0.253-0.289 0.407-0.668 0.407-1.082 0-0.417-0.155-0.797-0.411-1.087-0.239-0.273-0.589-0.445-0.98-0.445-0.393 0-0.745 0.174-0.985 0.451l-3.243 3.593c0.203-6.347 4.928-11.441 10.709-11.441 5.909 0 10.724 5.325 10.724 11.87s-4.813 11.87-10.722 11.87c-2.18 0-4.275-0.719-6.063-2.078-0.631-0.48-1.498-0.307-1.937 0.39-0.435 0.698-0.279 1.649 0.326 2.106 2.118 1.651 4.779 2.637 7.672 2.645 7.445 0 13.504-6.699 13.504-14.933z"></path>
</svg>
<svg id="icon-completedStage" width="32" height="32" viewBox="0 0 32 32" x="240" y="0">
	<g>
	 <defs>
        <linearGradient x1="14.169%" y1="13.954%" x2="69.499%" y2="67.405%" id="b">
            <stop stop-color="#FFF" stop-opacity="0" offset="0%"/>
            <stop stop-opacity=".5" offset="100%"/>
        </linearGradient>
        <rect id="a" x="1.48" y="3.109" width="1.983" height="5.53" rx=".68"/>
    </defs>
    <g fill="none" fill-rule="evenodd">
        <circle fill="#FFF" cx="7.5" cy="7.5" r="7.5"/>
        <g transform="translate(2 3.5)">
            <use fill="#FCA20E" xlink:href="#a"/>
            <use fill="url(#b)" xlink:href="#a"/>
        </g>
        <path d="M12.54 5.328a.678.678 0 0 0 0-.95l-.453-.453a.668.668 0 0 0-.95 0l-6.765 6.766.927.928a.668.668 0 0 0 .95 0l6.29-6.29z" fill="#FCA20E"/>
    </g>
	</g>
</svg>

<svg id="icon-createAccountVisitor" width="32" height="32" viewBox="0 0 32 32" x="288" y="0">
	 <g fill="#9B9B9B" fill-rule="evenodd">
        <path d="M6.33.17c-.486 0-.067.157-.328.197-.26.04.345-.04-.438.12-.784.167-.942 1.238-.98 1.635-.037.396-.046.515-.027 1.11.074.357-.3.357-.3.357-.475-.03-.55 1.526-.55 1.526.066.387-.027.575.672.873.326 1 1.175 1.506 1.175 1.506s.037.644.055 1.1c-.074-.03-.13 1.18-2.285 1.517C1.162 10.45.75 11.193.34 11.61-.07 12.027.006 14 .006 14l8.916-.04a4.618 4.618 0 0 1-1.472-3.4 4.6 4.6 0 0 1 .97-2.846l.01-.14s.7-.614 1.025-1.615c.522-.348.718-.398.81-.804 0 0 .234-1.527-.325-1.527 0 0-.644.04-.57-.318.076-.357.048-.476.01-.873C9.34 2.04 9.565.9 8.78.743c-.53-.1-.362.06-.623.02C7.895.723 7.587 0 7.103 0L6.33.17z"/>
        <path d="M11.72 7c-1.81 0-3.283 1.57-3.283 3.5S9.91 14 11.72 14c1.808 0 3.28-1.57 3.28-3.5S13.528 7 11.72 7zm.467 4v2h-.937v-2H9.375v-1h1.875V8h.938v2h1.874v1h-1.874z"/>
    </g>
</svg>
<svg id="icon-deleteExpertise" width="32" height="32" viewBox="0 0 32 32" x="336" y="0">
	<path d="M11.054 2.56c.586-.588.58-1.532-.005-2.118A1.493 1.493 0 0 0 8.93.437L5.746 3.624 2.56.437A1.494 1.494 0 0 0 .44.442 1.493 1.493 0 0 0 .437 2.56l3.187 3.186L.437 8.932c-.586.587-.58 1.53.005 2.117.59.59 1.534.587 2.117.004l3.186-3.187 3.186 3.187c.587.586 1.53.58 2.117-.005.59-.59.587-1.534.004-2.118L7.867 5.746l3.187-3.187z" fill="#202334" fill-rule="evenodd"/>
</svg>
<svg id="icon-edit" width="32" height="32" viewBox="0 0 32 32" x="384" y="0">
 <g id="Page-1" stroke="none" stroke-width="1" fill="none" fill-rule="evenodd">
        <g id="13--Profile-mentor/staff-(desktop)" transform="translate(-447.000000, -732.000000)" fill="#202334">
            <g id="Edit" transform="translate(451.335796, 739.152638) rotate(33.000000) translate(-451.335796, -739.152638) translate(449.835796, 730.652638)">
                <rect id="Rectangle-path" x="0.342034152" y="0.997015113" width="2.66666667" height="11.556" rx="0.349"></rect>
                <path d="M1.25403415,15.7303484 C1.48603415,16.4303484 1.86070082,16.4410151 2.09670082,15.7303484 L3.00870082,12.9970151 L0.342034152,12.9970151 L1.25403415,15.7303484 L1.25403415,15.7303484 Z" id="Shape"></path>
            </g>
        </g>
    </g>
</svg>
<svg id="icon-emailCreate" width="32" height="32" viewBox="0 0 32 32" x="432" y="0">
     <g id="Page-1" stroke="none" stroke-width="1" fill="none" fill-rule="evenodd" fill-opacity="0.3">
        <g id="2-Sign-Up" transform="translate(-18.000000, -233.000000)" fill="#000000">
            <g id="Information" transform="translate(15.000000, 180.000000)">
                <g id="emailCreate" transform="translate(3.000000, 53.000000)">
                    <g id="Email-icon">
                        <path d="M1.36363636,1.5351348 C1.36363636,1.53362926 1.36736722,1.52941176 1.35804757,1.52941176 L13.6419524,1.52941176 C13.6371775,1.52941176 13.6363636,1.52848589 13.6363636,1.5351348 L13.6363636,10.7120886 C13.6363636,11.1288604 13.3311134,11.4705882 12.9608215,11.4705882 L2.0391785,11.4705882 C1.66663159,11.4705882 1.36363636,11.1303837 1.36363636,10.7120886 L1.36363636,1.5351348 L1.36363636,1.5351348 Z M0,1.5351348 L0,10.7120886 C0,11.9746775 0.913179503,13 2.0391785,13 L12.9608215,13 C14.0836662,13 15,11.9741636 15,10.7120886 L15,1.5351348 C15,0.688643133 14.394666,0 13.6419524,0 L1.35804757,0 C0.611837261,0 0,0.691642896 0,1.5351348 L0,1.5351348 Z M0.229938751,1.3565246 L6.04296588,7.21595133 C6.8615705,8.04109005 8.16684803,8.03918986 8.98196772,7.21522972 L14.7785274,1.35580299 L13.8655875,0.219722634 L8.06902788,6.07914936 C7.77191785,6.37948172 7.2538941,6.38023585 6.95447597,6.07842775 L1.14144884,0.219001023 L0.229938751,1.3565246 L0.229938751,1.3565246 Z" id="Shape"></path>
                    </g>
                </g>
            </g>
        </g>
    </g>
</svg>
<svg id="icon-facebook" width="32" height="32" viewBox="0 0 32 32" x="480" y="0">
    <path d="M6.908 13.83c.148.01.323.016.503.016h.09c.182 0 .356-.007.504-.017l.153-1.076a.577.577 0 0 1 .442-.48c.505-.117.987-.313 1.433-.582a.578.578 0 0 1 .667.05l.857.652c.112-.098.24-.216.368-.344l.062-.063c.128-.128.247-.257.345-.37l-.65-.864a.577.577 0 0 1-.027-.654c.27-.43.47-.896.594-1.386a.576.576 0 0 1 .488-.473l1.09-.148a7.98 7.98 0 0 0 .018-.503V7.5c0-.18-.008-.356-.017-.505l-1.073-.153a.577.577 0 0 1-.48-.44 4.86 4.86 0 0 0-.573-1.42.576.576 0 0 1 .024-.662l.666-.877a7.904 7.904 0 0 0-.344-.368l-.063-.062a7.93 7.93 0 0 0-.37-.345l-.867.652a.577.577 0 0 1-.687.005 4.862 4.862 0 0 0-1.388-.58.577.577 0 0 1-.434-.483l-.148-1.09a7.864 7.864 0 0 0-.503-.018H7.5c-.18 0-.356.008-.505.017l-.152 1.076a.577.577 0 0 1-.483.49c-.49.116-.96.308-1.393.57a.576.576 0 0 1-.67-.053l-.854-.647c-.112.098-.24.216-.368.344l-.062.063c-.13.128-.247.257-.345.37l.652.867a.577.577 0 0 1 0 .693 4.86 4.86 0 0 0-.578 1.382.577.577 0 0 1-.482.434l-1.09.148a7.87 7.87 0 0 0-.016.503v.09c0 .18.008.356.017.505l1.076.152a.577.577 0 0 1 .49.49c0 .008.002.015.003.022.116.48.306.94.563 1.365a.577.577 0 0 1-.053.672l-.644.85c.098.11.216.24.344.368l.062.062c.13.13.258.247.37.345l.867-.652a.577.577 0 0 1 .717.02c.423.255.88.444 1.357.562.23.056.402.247.434.48l.15 1.087zM7.5 15h-.09c-.565 0-1.063-.063-1.084-.066a.577.577 0 0 1-.498-.493l-.16-1.165a6.004 6.004 0 0 1-1.036-.44l-.922.694a.577.577 0 0 1-.7-.006 9.534 9.534 0 0 1-.813-.72l-.063-.064c-.4-.4-.708-.796-.72-.813a.577.577 0 0 1-.005-.7l.712-.942a6.016 6.016 0 0 1-.422-1.04L.557 9.083a.577.577 0 0 1-.49-.498C.062 8.565 0 8.065 0 7.5v-.09c0-.565.063-1.063.066-1.084a.577.577 0 0 1 .493-.498l1.17-.16c.112-.358.26-.703.437-1.033L1.47 3.71a.577.577 0 0 1 .006-.7 9.55 9.55 0 0 1 .72-.813l.063-.063c.4-.4.796-.708.813-.72a.577.577 0 0 1 .702-.004l.942.714c.332-.172.68-.313 1.037-.42L5.917.557a.577.577 0 0 1 .498-.49C6.435.062 6.935 0 7.5 0h.09c.565 0 1.063.063 1.084.066.26.033.463.235.498.494l.16 1.17c.357.114.702.26 1.032.437l.926-.696a.577.577 0 0 1 .7.006c.017.013.413.32.813.72l.063.064c.4.4.708.797.72.813.16.207.162.494.004.702l-.714.94c.173.333.314.68.422 1.04l1.145.162c.257.037.458.24.49.498.004.02.067.52.067 1.085v.09c0 .565-.063 1.063-.066 1.084a.577.577 0 0 1-.494.5l-1.167.158c-.114.358-.26.703-.438 1.034l.694.925a.577.577 0 0 1-.006.7c-.013.017-.32.413-.72.813l-.064.063c-.4.4-.797.708-.813.72a.577.577 0 0 1-.702.004l-.943-.715a6.01 6.01 0 0 1-1.036.42l-.163 1.148a.577.577 0 0 1-.498.49c-.02.004-.52.067-1.085.067zm0-9.487c-1.097 0-1.99.893-1.99 1.99s.893 1.99 1.99 1.99a1.99 1.99 0 0 0 1.99-1.99c0-1.097-.893-1.99-1.99-1.99zm0 5.133a3.147 3.147 0 0 1-3.143-3.143A3.147 3.147 0 0 1 7.5 4.36a3.147 3.147 0 0 1 3.143 3.143A3.147 3.147 0 0 1 7.5 10.646z" fill="#9B9B9B" fill-rule="evenodd"/>
</svg>
<svg id="icon-gearSetting" width="32" height="32" viewBox="0 0 32 32" x="528" y="0">
    <path d="M6.908 13.83c.148.01.323.016.503.016h.09c.182 0 .356-.007.504-.017l.153-1.076a.577.577 0 0 1 .442-.48c.505-.117.987-.313 1.433-.582a.578.578 0 0 1 .667.05l.857.652c.112-.098.24-.216.368-.344l.062-.063c.128-.128.247-.257.345-.37l-.65-.864a.577.577 0 0 1-.027-.654c.27-.43.47-.896.594-1.386a.576.576 0 0 1 .488-.473l1.09-.148a7.98 7.98 0 0 0 .018-.503V7.5c0-.18-.008-.356-.017-.505l-1.073-.153a.577.577 0 0 1-.48-.44 4.86 4.86 0 0 0-.573-1.42.576.576 0 0 1 .024-.662l.666-.877a7.904 7.904 0 0 0-.344-.368l-.063-.062a7.93 7.93 0 0 0-.37-.345l-.867.652a.577.577 0 0 1-.687.005 4.862 4.862 0 0 0-1.388-.58.577.577 0 0 1-.434-.483l-.148-1.09a7.864 7.864 0 0 0-.503-.018H7.5c-.18 0-.356.008-.505.017l-.152 1.076a.577.577 0 0 1-.483.49c-.49.116-.96.308-1.393.57a.576.576 0 0 1-.67-.053l-.854-.647c-.112.098-.24.216-.368.344l-.062.063c-.13.128-.247.257-.345.37l.652.867a.577.577 0 0 1 0 .693 4.86 4.86 0 0 0-.578 1.382.577.577 0 0 1-.482.434l-1.09.148a7.87 7.87 0 0 0-.016.503v.09c0 .18.008.356.017.505l1.076.152a.577.577 0 0 1 .49.49c0 .008.002.015.003.022.116.48.306.94.563 1.365a.577.577 0 0 1-.053.672l-.644.85c.098.11.216.24.344.368l.062.062c.13.13.258.247.37.345l.867-.652a.577.577 0 0 1 .717.02c.423.255.88.444 1.357.562.23.056.402.247.434.48l.15 1.087zM7.5 15h-.09c-.565 0-1.063-.063-1.084-.066a.577.577 0 0 1-.498-.493l-.16-1.165a6.004 6.004 0 0 1-1.036-.44l-.922.694a.577.577 0 0 1-.7-.006 9.534 9.534 0 0 1-.813-.72l-.063-.064c-.4-.4-.708-.796-.72-.813a.577.577 0 0 1-.005-.7l.712-.942a6.016 6.016 0 0 1-.422-1.04L.557 9.083a.577.577 0 0 1-.49-.498C.062 8.565 0 8.065 0 7.5v-.09c0-.565.063-1.063.066-1.084a.577.577 0 0 1 .493-.498l1.17-.16c.112-.358.26-.703.437-1.033L1.47 3.71a.577.577 0 0 1 .006-.7 9.55 9.55 0 0 1 .72-.813l.063-.063c.4-.4.796-.708.813-.72a.577.577 0 0 1 .702-.004l.942.714c.332-.172.68-.313 1.037-.42L5.917.557a.577.577 0 0 1 .498-.49C6.435.062 6.935 0 7.5 0h.09c.565 0 1.063.063 1.084.066.26.033.463.235.498.494l.16 1.17c.357.114.702.26 1.032.437l.926-.696a.577.577 0 0 1 .7.006c.017.013.413.32.813.72l.063.064c.4.4.708.797.72.813.16.207.162.494.004.702l-.714.94c.173.333.314.68.422 1.04l1.145.162c.257.037.458.24.49.498.004.02.067.52.067 1.085v.09c0 .565-.063 1.063-.066 1.084a.577.577 0 0 1-.494.5l-1.167.158c-.114.358-.26.703-.438 1.034l.694.925a.577.577 0 0 1-.006.7c-.013.017-.32.413-.72.813l-.064.063c-.4.4-.797.708-.813.72a.577.577 0 0 1-.702.004l-.943-.715a6.01 6.01 0 0 1-1.036.42l-.163 1.148a.577.577 0 0 1-.498.49c-.02.004-.52.067-1.085.067zm0-9.487c-1.097 0-1.99.893-1.99 1.99s.893 1.99 1.99 1.99a1.99 1.99 0 0 0 1.99-1.99c0-1.097-.893-1.99-1.99-1.99zm0 5.133a3.147 3.147 0 0 1-3.143-3.143A3.147 3.147 0 0 1 7.5 4.36a3.147 3.147 0 0 1 3.143 3.143A3.147 3.147 0 0 1 7.5 10.646z" fill="#9B9B9B" fill-rule="evenodd"/>
</svg>
<svg id="icon-hamburgerBlack" width="32" height="32" viewBox="0 0 32 32" x="576" y="0">
  <g fill="#202334" fill-rule="evenodd">
        <path d="M0 1.343C.696 1.343 1.25.748 1.25 0h22.5c0 .748.554 1.343 1.25 1.343v1.15c-.696 0-1.25.596-1.25 1.345H1.25c0-.75-.554-1.344-1.25-1.344v-1.15zM0 9.018c.696 0 1.25-.595 1.25-1.343h22.5c0 .748.554 1.343 1.25 1.343v1.15c-.696 0-1.25.596-1.25 1.345H1.25c0-.75-.554-1.344-1.25-1.344V9.017zM0 16.693c.696 0 1.25-.595 1.25-1.343h22.5c0 .748.554 1.343 1.25 1.343v1.15c-.696 0-1.25.596-1.25 1.345H1.25c0-.75-.554-1.344-1.25-1.344v-1.15z"/>
    </g>
</svg>
<svg id="icon-hamburgerWhite" width="32" height="32" viewBox="0 0 32 32" x="624" y="0">
    <g fill="#FFF" fill-rule="evenodd">
        <path d="M0 1.342C.696 1.342 1.25.747 1.25 0h22.5c0 .748.554 1.342 1.25 1.342v1.15c-.696 0-1.25.594-1.25 1.34H1.25c0-.746-.554-1.34-1.25-1.34v-1.15zM0 8.842c.696 0 1.25-.595 1.25-1.342h22.5c0 .748.554 1.342 1.25 1.342v1.15c-.696 0-1.25.594-1.25 1.34H1.25c0-.746-.554-1.34-1.25-1.34v-1.15zM1.25 15.833h22.5c0 .748.554 1.342 1.25 1.342v1.15c-.696 0-1.25.594-1.25 1.342H1.25c0-.748-.554-1.342-1.25-1.342v-1.15c.696 0 1.25-.594 1.25-1.342z"/>
    </g>
</svg>
<svg id="icon-homeVisitor" width="32" height="32" viewBox="0 0 32 32" x="672" y="0">
    <path d="M3.75 8v3h2.813V8H3.75zM7.5 0l-.938 1L0 8l.938 1 .937-1v6h11.25V8l.938 1L15 8 8.437 1 7.5 0zM2.775 7.04l.328-.35 4.425-4.47 4.585 4.69.15.16v6.02l-1.013-.01V8H7.5v5.04L2.766 13l.01-5.96zM10.312 9v4H8.438V9h1.874z" fill="#9B9B9B" fill-rule="evenodd"/>
</svg>
<svg id="icon-linkedin" width="32" height="32" viewBox="0 0 32 32" x="720" y="0">
    <path d="M23.55 1.45C22.637.54 21.54.086 20.26.086H4.74C3.46.085 2.363.54 1.45 1.45.54 2.363.086 3.46.086 4.74v15.52c0 1.282.455 2.378 1.366 3.29.912.91 2.008 1.365 3.29 1.365h15.52c1.282 0 2.378-.455 3.29-1.366.91-.912 1.365-2.008 1.365-3.29V4.74c0-1.282-.456-2.378-1.366-3.29zM7.65 20.875H3.916V9.654H7.65v11.22zM7.31 7.578c-.387.372-.9.558-1.535.558H5.76c-.615 0-1.113-.186-1.496-.558a1.85 1.85 0 0 1-.574-1.382c0-.56.197-1.024.59-1.39.393-.367.903-.55 1.528-.55s1.126.183 1.503.55c.378.366.572.83.583 1.39 0 .55-.194 1.01-.582 1.382zm13.774 13.296H17.35v-5.998c0-1.69-.625-2.538-1.876-2.538-.474 0-.872.132-1.196.397a2.49 2.49 0 0 0-.727.96c-.075.195-.112.497-.112.907v6.272H9.704c.032-6.768.032-10.508 0-11.22h3.734v1.585c.785-1.23 1.9-1.844 3.346-1.844 1.293 0 2.333.426 3.12 1.277.787.85 1.18 2.107 1.18 3.766v6.434z" fill="#202334" fill-rule="evenodd"/>
</svg>
<svg id="icon-lookCreate" width="32" height="32" viewBox="0 0 32 32" x="768" y="0">
  <g id="Page-1" stroke="none" stroke-width="1" fill="none" fill-rule="evenodd" fill-opacity="0.3">
        <g id="2-Sign-Up" transform="translate(-18.000000, -284.000000)" fill="#000000">
            <g id="Information" transform="translate(15.000000, 180.000000)">
                <g id="lockCreate" transform="translate(3.000000, 104.000000)">
                    <g id="Password-icon">
                        <path d="M1.5,6.37561742 L1.5,6.37561742 L1.5,16.2910492 C1.5,15.9039169 1.16282557,15.5833333 0.743852332,15.5833333 L14.2561477,15.5833333 C13.8325768,15.5833333 13.5,15.8978392 13.5,16.2910492 L13.5,6.37561742 C13.5,6.76274974 13.8371744,7.08333333 14.2561477,7.08333333 L0.743852332,7.08333333 C1.16742318,7.08333333 1.5,6.76882744 1.5,6.37561742 L1.5,6.37561742 L1.5,6.37561742 Z M0,6.37561742 C0,5.98407473 0.341479182,5.66666667 0.743852332,5.66666667 L14.2561477,5.66666667 C14.666966,5.66666667 15,5.98161353 15,6.37561742 L15,16.2910492 C15,16.6825919 14.6585208,17 14.2561477,17 L0.743852332,17 C0.333034033,17 0,16.6850531 0,16.2910492 L0,6.37561742 L0,6.37561742 Z M3.75,3.54166667 L3.75,7.08333333 L2.25,5.66666667 L12.75,5.66666667 L11.25,7.08333333 L11.25,3.54166667 C11.25,2.37010608 10.2422618,1.41666667 9.00372819,1.41666667 L5.99627181,1.41666667 C4.75490046,1.41666667 3.75,2.36701612 3.75,3.54166667 L3.75,3.54166667 Z M2.25,3.54166667 C2.25,1.58565818 3.92536659,0 5.99627181,0 L9.00372819,0 C11.072737,0 12.75,1.58963826 12.75,3.54166667 L12.75,7.08333333 L2.25,7.08333333 L2.25,3.54166667 L2.25,3.54166667 L2.25,3.54166667 Z M8.25,11.8521419 C8.69835103,11.6071936 9,11.1493667 9,10.625 C9,9.8425966 8.32842712,9.20833333 7.5,9.20833333 C6.67157288,9.20833333 6,9.8425966 6,10.625 C6,11.1493667 6.30164897,11.6071936 6.75,11.8521419 L6.75,13.4583333 L8.25,13.4583333 L8.25,11.8521419 L8.25,11.8521419 Z" id="Shape"></path>
                    </g>
                </g>
            </g>
        </g>
    </g>
</svg>
<svg id="icon-loginVisitor" width="32" height="32" viewBox="0 0 32 32" x="816" y="0">
    <path d="M13.857 6.742c0-.964-.666-1.75-1.484-1.75-.2 0-.395.047-.578.138-.285.143-.614-.015-.734-.35-.12-.338.014-.726.3-.87a2.25 2.25 0 0 1 1.013-.24c1.436 0 2.605 1.378 2.605 3.072 0 1.695-1.17 3.074-2.605 3.074-.745 0-1.457-.38-1.95-1.038a.748.748 0 0 1 .047-.934c.232-.242.586-.217.79.057.283.377.688.592 1.113.592.818 0 1.484-.785 1.484-1.75zM17 12.582c0 .366-.25.653-.56.653h-2.498c-.31 0-.56-.296-.56-.66 0-.367.25-.663.56-.663h1.664c-.27-.44-.726-.79-1.283-1.15-.27-.177-.37-.57-.22-.89.148-.32.49-.437.76-.26.798.516 2.137 1.583 2.137 2.97zm-14.9.653c.635-.563 1.698-1.198 2.852-1.67l1.277.915a.65.65 0 0 0 .774 0l1.277-.914c1.155.47 2.217 1.106 2.852 1.67h-9.03zM8.415 9.76a.65.65 0 0 0-.613.085l-1.184.85-1.184-.85a.65.65 0 0 0-.614-.086C3.688 10.18 0 11.746 0 14.117c0 .487.335.882.747.882h11.738c.413 0 .748-.395.748-.882 0-2.37-3.688-3.936-4.82-4.36zM6.616 1.764c1.355 0 2.457 1.3 2.457 2.897 0 1.598-1.102 2.897-2.457 2.897-1.354 0-2.456-1.3-2.456-2.898s1.102-2.897 2.456-2.897zm0 7.56c2.18 0 3.95-2.092 3.95-4.663 0-2.57-1.77-4.662-3.95-4.662-2.178 0-3.95 2.09-3.95 4.662 0 2.57 1.772 4.662 3.95 4.662z" fill="#9B9B9B" fill-rule="evenodd"/>
</svg>
<svg id="icon-loopSearchDark" width="32" height="32" viewBox="0 0 32 32" x="864" y="0">
  <g fill="#9B9B9B" fill-rule="evenodd">
        <path d="M5.923 10.91c2.544 0 4.607-2.138 4.607-4.774S8.467 1.364 5.923 1.364 1.316 3.5 1.316 6.136 3.38 10.91 5.923 10.91zm0 1.363C2.653 12.273 0 9.525 0 6.136 0 2.746 2.652 0 5.923 0c3.27 0 5.923 2.747 5.923 6.136 0 3.39-2.652 6.137-5.923 6.137z"/>
        <path d="M10.02 9.394l4.276 4.43-.93.966-4.278-4.432.93-.964z"/>
    </g>
</svg>
<svg id="icon-loopSearchLight" width="32" height="32" viewBox="0 0 32 32" x="912" y="0">
    <g fill="#202334" fill-rule="evenodd">
        <path d="M6.427 10.91c2.4 0 4.343-2.138 4.343-4.774S8.826 1.364 6.427 1.364c-2.398 0-4.342 2.136-4.342 4.772S4.03 10.91 6.427 10.91zm0 1.363c-3.083 0-5.583-2.748-5.583-6.137C.844 2.746 3.344 0 6.427 0 9.51 0 12.01 2.747 12.01 6.136c0 3.39-2.5 6.137-5.583 6.137z"/>
        <path d="M10.288 9.394l4.032 4.43-.877.966-4.033-4.432.878-.964z"/>
    </g>
</svg>
<svg id="icon-loup" width="32" height="32" viewBox="0 0 32 32" x="960" y="0">
  <g id="Page-1" stroke="none" stroke-width="1" fill="none" fill-rule="evenodd">
        <g id="13--Profile-mentor/staff-(mobile)-Copy-2" transform="translate(-270.000000, -491.000000)" fill="#9B9B9B">
            <g id="search-input" transform="translate(26.000000, 479.000000)">
                <g id="loup" transform="translate(244.000000, 12.000000)">
                    <g id="Group-5" transform="translate(0.676645, 0.000000)">
                        <path d="M5.5831824,10.9090909 L5.5831824,10.9090909 C7.98146523,10.9090909 9.92565761,8.77226812 9.92565761,6.13636364 C9.92565761,3.50045915 7.98146523,1.36363636 5.5831824,1.36363636 C3.18489957,1.36363636 1.2407072,3.50045915 1.2407072,6.13636364 C1.2407072,8.77226812 3.18489957,10.9090909 5.5831824,10.9090909 L5.5831824,10.9090909 L5.5831824,10.9090909 L5.5831824,10.9090909 L5.5831824,10.9090909 L5.5831824,10.9090909 Z M5.5831824,12.2727273 L5.5831824,12.2727273 C2.49967591,12.2727273 0,9.52538369 0,6.13636364 C0,2.74734358 2.49967591,0 5.5831824,0 C8.6666889,0 11.1663648,2.74734358 11.1663648,6.13636364 C11.1663648,9.52538369 8.6666889,12.2727273 5.5831824,12.2727273 L5.5831824,12.2727273 L5.5831824,12.2727273 L5.5831824,12.2727273 L5.5831824,12.2727273 L5.5831824,12.2727273 Z" id="Shape"></path>
                        <polygon id="Shape" points="9.44347647 9.39359197 13.4757749 13.8254101 12.5984624 14.7896467 8.56616399 10.3578285 9.44347647 9.39359197 9.44347647 9.39359197"></polygon>
                    </g>
                </g>
            </g>
        </g>
    </g>
</svg>
<svg id="icon-notepadRoomboking" width="32" height="32" viewBox="0 0 32 32" x="1008" y="0">
    <path d="M4.328 9.56h6.343c.396 0 .716-.295.716-.66 0-.363-.32-.658-.715-.658H4.33c-.394 0-.714.295-.714.66 0 .363.32.658.714.658M6.91 2.473h1.18c.393 0 .713-.296.713-.66 0-.364-.32-.66-.714-.66H6.91c-.393 0-.713.296-.713.66 0 .364.32.66.714.66m7.376-1.32h-1.49c-.396 0-.715.296-.715.66 0 .364.32.66.715.66h.776V13.68H1.43V2.474h.775c.394 0 .714-.296.714-.66 0-.364-.32-.66-.715-.66H.715c-.395 0-.715.356-.715.72V14.34c0 .365.32.66.714.66h13.572c.394 0 .714-.295.714-.66V1.874c0-.364-.32-.72-.714-.72m-9.958 5.44h6.343c.396 0 .716-.295.716-.66 0-.363-.32-.658-.715-.658H4.33c-.394 0-.714.295-.714.66 0 .363.32.658.714.658m6.03-2.836c.492 0 .892-.37.892-.825V.824c0-.455-.4-.824-.893-.824s-.893.37-.893.824v2.108c0 .456.4.825.893.825M3.75 2.932V.824c0-.455.4-.824.893-.824s.893.37.893.824v2.108c0 .456-.4.825-.893.825s-.893-.37-.893-.825" fill="#9B9B9B" fill-rule="evenodd"/>
</svg>
<svg id="icon-notificationBell" width="32" height="32" viewBox="0 0 32 32" x="1056" y="0">
   <g transform="translate(.11)" fill="#202334" fill-rule="evenodd">
        <path d="M2.196 5.938v4.687l-1.098-1.25H9.88l-1.097 1.25V5.937C8.783 4.043 7.428 2.5 5.76 2.5h-.54c-1.673 0-3.024 1.538-3.024 3.438zm-1.098 0c0-2.59 1.84-4.688 4.12-4.688h.54c2.277 0 4.123 2.104 4.123 4.688v4.687H1.1V5.937z"/>
        <rect x="4.94" width="1.098" height="2.5" rx="27"/>
        <path d="M.976 12.428L0 11.855h1.098v.65c0-.35-.245-.63-.554-.63h9.89c-.308 0-.553.278-.553.63v-.59h1.1l-.99.54-1.074-2.538.99.708H1.12l.976-.678-1.122 2.48zM0 11.855l1.122-2.48h8.783l1.074 2.54v.59c0 .343-.25.62-.546.62H.544c-.3 0-.544-.282-.544-.62v-.65zm3.842 1.27C3.842 14.16 4.58 15 5.49 15c.91 0 1.646-.84 1.646-1.875H3.842z"/>
    </g>
</svg>
<svg id="icon-occupiedRoom" width="32" height="32" viewBox="0 0 32 32" x="1104" y="0">
   <path d="M10.313 7.97H4.686a.47.47 0 0 1 0-.94h5.625a.47.47 0 0 1 0 .94zM7.5 0A7.5 7.5 0 0 0 0 7.5 7.5 7.5 0 0 0 7.5 15 7.5 7.5 0 0 0 15 7.5 7.5 7.5 0 0 0 7.5 0z" fill="#E99100" fill-rule="evenodd"/>
</svg>
<svg id="icon-padlock" width="32" height="32" viewBox="0 0 32 32" x="1152" y="0">
  <g>
      <path d="m409.6,197.3h-18v-50.6c0-74.8-60.8-135.7-135.6-135.7s-135.6,60.9-135.6,135.6v50.6h-17.9c-17.7,0-32.1,14.4-32.1,32.1v239.6c0,17.7 14.4,32.1 32.1,32.1h307.2c17.7,0 32.1-14.4 32.1-32.1v-239.6c-0.1-17.6-14.5-32-32.2-32zm-248.4-50.7c0-52.3 42.5-94.8 94.8-94.8 52.3,0 94.8,42.5 94.8,94.8v50.5h-189.6v-50.5zm239.6,313.6h-289.6v-222.1h289.7v222.1z"/>
      <path d="m256,429.7c11.3,0 20.4-9.1 20.4-20.4v-52.6c0-11.3-9.1-20.4-20.4-20.4s-20.4,9.1-20.4,20.4v52.6c2.84217e-14,11.2 9.1,20.4 20.4,20.4z"/>
    </g>
</svg>
<svg id="icon-personCreate" width="32" height="32" viewBox="0 0 32 32" x="1200" y="0">
 <g id="Page-1" stroke="none" stroke-width="1" fill="none" fill-rule="evenodd" opacity="0.3">
        <g id="2-Sign-Up" transform="translate(-18.000000, -181.000000)">
            <g id="Information" transform="translate(15.000000, 180.000000)">
                <g id="Use-icon" transform="translate(3.000000, 1.000000)">
                    <g id="icon_ios_user">
                        <path d="M9,18.24 L9,18.24 C13.5729177,18.24 17.28,14.3269687 17.28,9.5 C17.28,4.67303129 13.5729177,0.76 9,0.76 C4.42708227,0.76 0.72,4.67303129 0.72,9.5 C0.72,14.3269687 4.42708227,18.24 9,18.24 L9,18.24 Z M9,19 L9,19 C4.02943725,19 0,14.7467051 0,9.5 C0,4.25329488 4.02943725,0 9,0 C13.9705627,0 18,4.25329488 18,9.5 C18,14.7467051 13.9705627,19 9,19 L9,19 Z" id="Shape" fill="#000000"></path>
                        <path d="M3.01817759,16.5981307 C3.15883395,16.4250653 3.35936088,16.2654504 3.64294801,16.1426628 C4.67444867,15.6960435 5.75735689,15.7074029 6.82053772,15.1969207 C6.91029768,14.4338071 6.96512626,13.5163287 6.92964596,12.6659264 C6.77758526,12.4417661 6.64815547,12.2240839 6.54403443,12.0489548 C6.10917927,11.317539 6.00271733,10.573079 5.99484393,10.0621357 C5.86432922,9.96378131 5.74140838,9.85942185 5.64972412,9.75816309 C5.31117294,9.38425733 5.38962275,8.38341591 5.48604347,8.11459333 C5.52239522,8.01324406 5.60540614,7.93513142 5.70916101,7.89719065 C5.62399683,7.5772424 5.55286003,7.18747696 5.55286003,6.77813201 C5.55286003,5.75835334 5.50622587,5.17196361 5.76898134,4.59753875 C6.31695631,3.39957911 7.74,2.68854118 9.18,2.68854118 C9.1806445,2.74611891 9.18124292,2.81108644 9.18179773,2.88294195 C9.18524894,2.81215915 9.18735621,2.74721602 9.18801299,2.68854118 C10.268013,2.68854118 11.6910567,3.39957911 12.2390316,4.59753875 C12.5017871,5.17196361 12.455153,5.75835334 12.455153,6.77813201 C12.455153,7.18747696 12.3840162,7.5772424 12.298852,7.89719065 C12.4026068,7.93513142 12.4856178,8.01324406 12.5219695,8.11459333 C12.6183902,8.38341591 12.69684,9.38425733 12.3582889,9.75816309 C12.2666046,9.85942185 12.1436838,9.96378131 12.0131691,10.0621357 C12.0052957,10.573079 11.8988337,11.317539 11.4639786,12.0489548 C11.3598575,12.2240839 11.2304277,12.4417661 11.078367,12.6659264 C11.0428867,13.5163287 11.0977153,14.4338071 11.1874753,15.1969207 C12.2506561,15.7074029 13.3335643,15.6960435 14.365065,16.1426628 C14.6463221,16.2644415 14.8458783,16.4224449 14.9863563,16.5938676 C13.3957284,18.09051 11.2984855,19 9,19 C6.70369767,19 4.60825585,18.0922369 3.01817759,16.5981307 Z" id="Path-155" fill="#4A4A4A"></path>
                    </g>
                </g>
            </g>
        </g>
    </g>
</svg>
<svg id="icon-powerIcon" width="32" height="32" viewBox="0 0 32 32" x="1248" y="0">
  <g fill="#202334" fill-rule="evenodd">
        <path d="M.058 7.852C.058 11.804 3.406 15 7.544 15s7.485-3.196 7.485-7.148c0-3.237-2.257-5.974-5.347-6.852v2.165c1.892.796 3.208 2.594 3.208 4.687 0 2.818-2.395 5.106-5.346 5.106-2.952 0-5.347-2.288-5.347-5.106 0-2.093 1.315-3.89 3.208-4.687V1C2.315 1.878.058 4.615.058 7.852z"/>
        <path d="M6.475 1c0-.5.534-1 1.07-1 .534 0 1.068.5 1.068 1v6c0 .5-.534 1-1.07 1-.534 0-1.068-.5-1.068-1V1z"/>
    </g>
</svg>
<svg id="icon-pplMeeting" width="32" height="32" viewBox="0 0 32 32" x="1296" y="0">
	<g>
	<defs>
        <path d="M9.77068794,0.238987849 L7.25822532,3.19391512 L2.79162512,3.19391512 C1.25623131,3.19391512 0,4.5236324 0,6.1488424 L0,23.8784061 C0,25.5036161 1.25623131,26.8333333 2.79162512,26.8333333 L25.1246261,26.8333333 C26.6600199,26.8333333 27.9162512,25.5036161 27.9162512,23.8784061 L27.9162512,6.1488424 C27.9162512,4.5236324 26.6600199,3.19391512 25.1246261,3.19391512 L20.6580259,3.19391512 L18.1455633,0.238987849 L9.77068794,0.238987849 L9.77068794,0.238987849 Z M14.0531184,20.62269 C10.7864518,20.62269 8.21978509,18.0560233 8.21978509,14.7893566 C8.21978509,11.52269 10.7864518,8.95602331 14.0531184,8.95602331 C17.3197851,8.95602331 19.8864518,11.52269 19.8864518,14.7893566 C19.8864518,18.0560233 17.3197851,20.62269 14.0531184,20.62269 L14.0531184,20.62269 Z" id="path-1"></path>
        <mask id="mask-2" maskContentUnits="userSpaceOnUse" maskUnits="objectBoundingBox" x="0" y="0" width="27.9162512" height="26.5943455" fill="white">
            <use xlink:href="#path-1"></use>
        </mask>
    </defs>
    <g id="Page-1" stroke="none" stroke-width="1" fill="none" fill-rule="evenodd">
        <g id="2-Sign-Up" transform="translate(-110.000000, -50.000000)">
            <g id="profile-picture" transform="translate(110.000000, 50.000000)">
                <g id="Group">
                    <path d="M50,100 C77.6142375,100 100,77.6142375 100,50 C100,22.3857625 77.6142375,0 50,0 C22.3857625,0 0,22.3857625 0,50 C0,77.6142375 22.3857625,100 50,100 Z" id="bg" fill="#C2C2C2"></path>
                    <g id="camera" transform="translate(35.416667, 35.416667)">
                        <g id="group" transform="translate(0.583333, 1.166667)" stroke="#FFFFFF" stroke-width="5.33333333">
                            <use id="shape" mask="url(#mask-2)" xlink:href="#path-1"></use>
                        </g>
                        <rect id="bounds" x="0" y="0" width="29.1666667" height="29.1666667"></rect>
                    </g>
                </g>
            </g>
        </g>
    </g>
	</g>
</svg>
<svg id="icon-separator" width="32" height="32" viewBox="0 0 32 32" x="1344" y="0">
 <g id="Page-1" stroke="none" stroke-width="1" fill="none" fill-rule="evenodd" stroke-linecap="square">
        <g id="11--Profile-startup-(mobile)" transform="translate(-85.000000, -607.000000)" stroke="#FFFFFF">
            <g id="Group-5" transform="translate(15.000000, 606.000000)">
                <path d="M70.5,1.5 L70.5,31.5" id="separators"></path>
            </g>
        </g>
    </g>
</svg>
<svg id="icon-twitter" width="32" height="32" viewBox="0 0 32 32" x="1392" y="0">
    <path d="M24.053 1.804C23.137.887 22.033.43 20.743.43H5.115c-1.29 0-2.395.457-3.312 1.374C.887 2.72.43 3.824.43 5.116V20.74c0 1.292.457 2.397 1.374 3.314.917.917 2.02 1.375 3.312 1.375H20.74c1.292 0 2.397-.46 3.313-1.376.917-.917 1.376-2.022 1.376-3.313V5.117c0-1.29-.46-2.395-1.377-3.312zm-4.5 8.244c.01.098.017.244.017.44 0 .91-.134 1.825-.4 2.742a9.822 9.822 0 0 1-1.22 2.637 10.262 10.262 0 0 1-1.96 2.23c-.76.645-1.672 1.16-2.735 1.546a9.95 9.95 0 0 1-3.418.578 9.59 9.59 0 0 1-5.24-1.53c.26.033.53.05.813.05 1.573 0 2.99-.49 4.248-1.465a3.245 3.245 0 0 1-1.977-.684A3.475 3.475 0 0 1 6.47 14.9c.282.044.494.065.635.065.238 0 .515-.043.83-.13-.792-.152-1.46-.545-2.002-1.18a3.25 3.25 0 0 1-.813-2.172v-.032c.575.27 1.117.412 1.627.423-.987-.66-1.48-1.61-1.48-2.847 0-.608.156-1.183.47-1.725A9.69 9.69 0 0 0 8.86 9.82c1.226.63 2.54.982 3.94 1.058a3.143 3.143 0 0 1-.082-.78c0-.945.333-1.75 1-2.418.668-.667 1.474-1 2.417-1 1 0 1.83.357 2.49 1.073a6.8 6.8 0 0 0 2.182-.83c-.27.835-.776 1.47-1.514 1.904a7.247 7.247 0 0 0 1.97-.553 6.644 6.644 0 0 1-1.71 1.774z" fill="#202334" fill-rule="evenodd"/>
</svg>
<svg id="icon-user" width="32" height="32" viewBox="0 0 32 32" x="1440" y="0">
   <g>
	<path d="M468.8,149.05c-12.3-29.1-29.9-55.1-52.3-77.6c-22.4-22.4-48.5-40-77.6-52.3c-30-12.6-62-19.1-94.9-19.1s-64.9,6.5-95,19.2
		c-29,12.3-55.1,29.9-77.5,52.3s-40,48.5-52.3,77.6c-12.7,30-19.2,62-19.2,94.9s6.5,64.9,19.2,95c12.3,29.1,29.9,55.2,52.3,77.6
		c22.4,22.4,48.5,40,77.6,52.3c30.1,12.7,62.1,19.2,95,19.2s64.9-6.5,95-19.2c29.1-12.3,55.1-29.9,77.6-52.3
		c22.4-22.4,40-48.5,52.3-77.6c12.7-30.1,19.2-62.1,19.2-95S481.5,179.15,468.8,149.05z M398.7,373.35c-1.9-5-5.1-9.5-9.3-12.9
		c-39.9-32.8-83-54.6-91.8-58.9c-1-0.5-1.6-1.5-1.6-2.6v-62.2c7.8-5.2,13-14.1,13-24.2v-64.5c0-32.1-26-58.1-58.1-58.1H244h-6.9
		c-32.1,0-58.1,26-58.1,58.1v64.5c0,10.1,5.2,19,13,24.2v62.2c0,1.1-0.6,2.1-1.6,2.6c-8.8,4.3-51.8,26.1-91.8,58.9
		c-4.2,3.5-7.4,8-9.3,12.9c-29.3-35-47-80.1-47-129.3c0-111.2,90.5-201.7,201.7-201.7s201.7,90.5,201.7,201.7
		C445.7,293.25,428.1,338.35,398.7,373.35z"/>
	</g>
</svg>
<svg id="icon-xMark" width="32" height="32" viewBox="0 0 32 32" x="1488" y="0">
	<g>
   <defs>
        <filter x="-50%" y="-50%" width="200%" height="200%" filterUnits="objectBoundingBox" id="a">
            <feOffset dy="2" in="SourceAlpha" result="shadowOffsetOuter1"/>
            <feGaussianBlur stdDeviation="2" in="shadowOffsetOuter1" result="shadowBlurOuter1"/>
            <feColorMatrix values="0 0 0 0 0 0 0 0 0 0 0 0 0 0 0 0 0 0 0.5 0" in="shadowBlurOuter1" result="shadowMatrixOuter1"/>
            <feMerge>
                <feMergeNode in="shadowMatrixOuter1"/>
                <feMergeNode in="SourceGraphic"/>
            </feMerge>
        </filter>
        <linearGradient x1="14.169%" y1="13.954%" x2="69.499%" y2="67.405%" id="c">
            <stop stop-color="#FFF" stop-opacity="0" offset="0%"/>
            <stop stop-opacity=".5" offset="100%"/>
        </linearGradient>
        <rect id="b" x="30.791" y="-7.618" width="23.797" height="99.897" rx="4"/>
        <rect id="d" x="30.432" y="-7.259" width="23.797" height="99.897" rx="4"/>
    </defs>
    <g filter="url(#a)" transform="translate(-67 -71)" fill="none" fill-rule="evenodd">
        <g transform="rotate(90 41.805 114.677)">
            <use fill="#FCA20E" xlink:href="#b"/>
            <use fill="url(#c)" style="mix-blend-mode:exclusion" xlink:href="#b"/>
        </g>
        <g transform="rotate(-180 78.062 79.305)">
            <use fill="#FCA20E" xlink:href="#d"/>
            <use fill="url(#c)" style="mix-blend-mode:exclusion" xlink:href="#d"/>
        </g>
    </g>
	</g>
</svg>
<svg id="icon-remove-sm" width="32" height="32" viewBox="0 0 32 32" x="1536" y="0">
  <g fill="none" fill-rule="evenodd">
        <circle fill="#D94D4D" cx="7.5" cy="7.5" r="7.5"/>
        <rect fill="#FFF" x="2" y="6.4" width="11" height="2" rx="1"/>
    </g>
</svg>
<svg id="icon-remove-lg" width="32" height="32" viewBox="0 0 32 32" x="1584" y="0">
 <g fill="none" fill-rule="evenodd">
        <circle fill="#D94D4D" cx="11" cy="11" r="11"/>
        <rect fill="#FFF" x="2.933" y="9.387" width="16.133" height="2.933" rx="1.467"/>
    </g>
</svg>
<svg id="icon-checkMark" width="32" height="32" viewBox="0 0 32 32" x="1632" y="0">
	<g>
	<defs>
        <filter x="-50%" y="-50%" width="200%" height="200%" filterUnits="objectBoundingBox" id="a">
            <feOffset dy="2" in="SourceAlpha" result="shadowOffsetOuter1"/>
            <feGaussianBlur stdDeviation="2" in="shadowOffsetOuter1" result="shadowBlurOuter1"/>
            <feColorMatrix values="0 0 0 0 0 0 0 0 0 0 0 0 0 0 0 0 0 0 0.5 0" in="shadowBlurOuter1" result="shadowMatrixOuter1"/>
            <feMerge>
                <feMergeNode in="shadowMatrixOuter1"/>
                <feMergeNode in="SourceGraphic"/>
            </feMerge>
        </filter>
        <linearGradient x1="14.169%" y1="13.954%" x2="69.499%" y2="67.405%" id="c">
            <stop stop-color="#FFF" stop-opacity="0" offset="0%"/>
            <stop stop-opacity=".5" offset="100%"/>
        </linearGradient>
        <rect id="b" x="17.766" y="35.842" width="23.797" height="63.754" rx="4"/>
    </defs>
    <g filter="url(#a)" transform="translate(-49 -69)" fill="none" fill-rule="evenodd">
        <g transform="translate(52.75 70.15)">
            <use fill="#FCA20E" xlink:href="#b"/>
            <use fill="url(#c)" xlink:href="#b"/>
        </g>
        <path d="M176.785 88.895a3.998 3.998 0 0 0-.01-5.66L165.618 72.08a4 4 0 0 0-5.66-.012L79.31 152.716l13.992 13.992a4 4 0 0 0 5.66.01l77.823-77.823z" fill="#FCA20E"/>
    </g>
	</g>
</svg>
<svg id="icon-diploma" width="32" height="32" viewBox="0 0 32 32" x="1680" y="0">
	<g>
	<defs>
        <rect id="path-1" x="0" y="2" width="16.0727273" height="12.5106383"></rect>
        <mask id="mask-2" maskContentUnits="userSpaceOnUse" maskUnits="objectBoundingBox" x="0" y="0" width="16.0727273" height="12.5106383" fill="white">
            <use xlink:href="#path-1"></use>
        </mask>
        <path d="M15.1590909,0.00243746434 L15.1590909,0 L1.25,0 L1.25,4.09574468 L15.1590909,4.09574468 L15.1590909,4.09330722 C15.7943959,4.04075667 16.3000245,3.14508338 16.3000245,2.04787234 C16.3000245,0.950661304 15.7943959,0.0549880069 15.1590909,0.00243746434 Z" id="path-3"></path>
        <mask id="mask-4" maskContentUnits="userSpaceOnUse" maskUnits="objectBoundingBox" x="0" y="0" width="15.0500245" height="4.09574468" fill="white">
            <use xlink:href="#path-3"></use>
        </mask>
        <ellipse id="path-5" cx="1.20000005" cy="2.04787234" rx="1.20000005" ry="2.04787234"></ellipse>
        <mask id="mask-6" maskContentUnits="userSpaceOnUse" maskUnits="objectBoundingBox" x="0" y="0" width="2.4000001" height="4.09574468" fill="white">
            <use xlink:href="#path-5"></use>
        </mask>
        <path d="M2.1563,0.585062892 L1.72359069,0.777601776 L1.38712007,0.195117857 L0.8308895,1.90701954 L1.78194602,2.21603654 L2.23409074,0.824478172 L2.68623546,2.21603654 L3.63729197,1.90701954 L3.0810614,0.195117857 L2.74459078,0.777601776 L2.31188148,0.585062892 L2.33817659,0.504134852 L2.23409074,0.550449026 L2.13000488,0.504134852 L2.1563,0.585062892 Z" id="path-7"></path>
        <mask id="mask-8" maskContentUnits="userSpaceOnUse" maskUnits="objectBoundingBox" x="-0.1" y="-0.1" width="3.00640247" height="2.22091868">
            <rect x="0.7308895" y="0.0951178575" width="3.00640247" height="2.22091868" fill="white"></rect>
            <use xlink:href="#path-7" fill="black"></use>
        </mask>
        <ellipse id="path-9" cx="2.23636364" cy="1.19148936" rx="1.23636364" ry="1.19148936"></ellipse>
        <mask id="mask-10" maskContentUnits="userSpaceOnUse" maskUnits="objectBoundingBox" x="0" y="0" width="2.47272727" height="2.38297872" fill="white">
            <use xlink:href="#path-9"></use>
        </mask>
    </defs>
    <g id="Page-1" stroke="none" stroke-width="1" fill="none" fill-rule="evenodd">
        <g id="13--Profile-mentor/staff-(tablet)" transform="translate(-646.000000, -496.000000)">
            <g id="diploma" transform="translate(646.000000, 496.000000)">
                <use id="Rectangle-1001" stroke="#202334" mask="url(#mask-2)" fill="#FFFFFF" xlink:href="#path-1"></use>
                <path d="M2,9.44680851 L9.57272727,9.44680851" id="Line" stroke="#202334" stroke-width="0.5" stroke-linecap="square"></path>
                <path d="M2,11 L9.41818182,11" id="Line" stroke="#202334" stroke-width="0.5" stroke-linecap="square"></path>
                <path d="M2,5.44680851 L14.2090909,5.44680851" id="Line" stroke="#202334" stroke-width="0.5" stroke-linecap="square"></path>
                <path d="M2,7.29787234 L14.0545455,7.29787234" id="Line" stroke="#202334" stroke-width="0.5" stroke-linecap="square"></path>
                <g id="Group-4">
                    <use id="Combined-Shape" stroke="#202334" mask="url(#mask-4)" fill="#FFFFFF" xlink:href="#path-3"></use>
                    <use id="Oval-313" stroke="#202334" mask="url(#mask-6)" fill="#FFFFFF" xlink:href="#path-5"></use>
                    <path id="Line" stroke="#2C3E50" stroke-width="0.5" stroke-linecap="square"></path>
                </g>
                <g id="Group-3" transform="translate(11.000000, 11.000000)">
                    <g id="Group-11" transform="translate(0.000000, 2.000000)">
                        <g id="Combined-Shape">
                            <use fill="#202334" fill-rule="evenodd" xlink:href="#path-7"></use>
                            <use stroke="#FFFFFF" mask="url(#mask-8)" stroke-width="0.2" xlink:href="#path-7"></use>
                        </g>
                    </g>
                    <polygon id="Star-1" stroke="#202334" stroke-width="0.5" fill="#FFFFFF" points="2.23636364 2.16283626 1.88803975 2.33471503 1.69143548 2.00863837 1.30198234 1.97174896 1.31951817 1.59500145 1.0125844 1.36105598 1.23869281 1.05325228 1.11172771 0.696526793 1.47462089 0.555392417 1.56793499 0.189144727 1.95239691 0.259488834 2.23636364 0 2.52033036 0.259488834 2.90479228 0.189144727 2.99810638 0.555392417 3.36099956 0.696526793 3.23403446 1.05325228 3.46014287 1.36105598 3.1532091 1.59500145 3.17074493 1.97174896 2.78129179 2.00863837 2.58468752 2.33471503"></polygon>
                    <use id="Oval-315" stroke="#202334" mask="url(#mask-10)" fill="#FFFFFF" xlink:href="#path-9"></use>
                </g>
            </g>
        </g>
    </g>
	</g>
</svg>
<svg id="icon-instagram" width="32" height="32" viewBox="0 0 32 32" x="1728" y="0">
   <defs>
        <path id="a" d="M0 24.997h24.96V.04H0z"/>
    </defs>
    <g fill="none" fill-rule="evenodd">
        <g>
            <mask id="b" fill="#fff">
                <use xlink:href="#a"/>
            </mask>
            <path d="M12.48.04c-3.39 0-3.814.014-5.145.074-1.33.06-2.236.272-3.03.58-.82.32-1.516.746-2.21 1.44a6.117 6.117 0 0 0-1.44 2.21c-.308.795-.52 1.702-.58 3.03C.015 8.704 0 9.13 0 12.52c0 3.39.014 3.814.075 5.145.06 1.33.272 2.236.58 3.03.32.82.746 1.516 1.44 2.21a6.117 6.117 0 0 0 2.21 1.44c.794.308 1.7.52 3.03.58 1.33.06 1.756.075 5.145.075 3.39 0 3.815-.014 5.146-.075 1.328-.06 2.236-.272 3.03-.58a6.117 6.117 0 0 0 2.21-1.44 6.118 6.118 0 0 0 1.44-2.21c.308-.794.52-1.7.58-3.03.06-1.33.075-1.756.075-5.145 0-3.39-.014-3.815-.074-5.146-.06-1.328-.272-2.235-.58-3.03a6.118 6.118 0 0 0-1.44-2.21 6.117 6.117 0 0 0-2.21-1.44c-.794-.308-1.702-.52-3.03-.58C16.296.054 15.87.04 12.48.04m0 2.248c3.333 0 3.727.013 5.043.073 1.217.056 1.878.26 2.318.43.583.227 1 .497 1.436.934.437.437.707.853.933 1.435.17.44.374 1.1.43 2.317.06 1.316.072 1.71.072 5.043 0 3.332-.013 3.727-.073 5.043-.056 1.217-.26 1.877-.43 2.317a3.865 3.865 0 0 1-.934 1.435 3.865 3.865 0 0 1-1.435.934c-.44.17-1.1.373-2.317.43-1.315.06-1.71.07-5.043.07-3.332 0-3.727-.01-5.043-.07-1.217-.057-1.877-.26-2.317-.43a3.866 3.866 0 0 1-1.435-.935 3.87 3.87 0 0 1-.934-1.435c-.17-.44-.373-1.1-.43-2.317-.06-1.316-.07-1.71-.07-5.043s.01-3.727.07-5.043c.057-1.217.26-1.878.43-2.318.228-.583.498-1 .935-1.436A3.867 3.867 0 0 1 5.12 2.79c.44-.17 1.1-.374 2.317-.43 1.316-.06 1.71-.072 5.043-.072" fill="#202334" mask="url(#b)"/>
        </g>
        <path d="M12.48 16.68a4.16 4.16 0 1 1 0-8.32 4.16 4.16 0 0 1 0 8.32m0-10.57a6.41 6.41 0 1 0 0 12.818 6.41 6.41 0 0 0 0-12.817M20.64 5.858a1.498 1.498 0 1 1-2.995 0 1.498 1.498 0 0 1 2.995 0" fill="#202334"/>
    </g>
</svg>
<svg id="icon-facebookCircle" width="55px" height="55px" viewBox="0 0 55 55" x="1799px" y="0px">
	
	<defs>
        <circle id="path-1" cx="27.5" cy="27.5" r="27.5"></circle>
        <mask id="mask-2" maskContentUnits="userSpaceOnUse" maskUnits="objectBoundingBox" x="0" y="0" width="55" height="55" fill="white">
            <use xlink:href="#path-1"></use>
        </mask>
    </defs>
    <g id="Symbols" stroke="none" stroke-width="1" fill="none" fill-rule="evenodd">
        <g id="social-median-icons">
            <g id="social-media">
                <g id="facebook">
                    <rect id="Rectangle" x="0" y="0" width="55" height="55"></rect>
                    <use id="Oval" stroke="#4A4A4A" mask="url(#mask-2)" stroke-width="3" xlink:href="#path-1"></use>
                    <path d="M29.1433821,43.75 L23.0465522,43.75 L23.0465522,29.3731854 L20,29.3731854 L20,24.4194174 L23.0465522,24.4194174 L23.0465522,21.4453421 C23.0465522,17.4043013 24.7658843,15 29.6537797,15 L33.7220585,15 L33.7220585,19.9555826 L31.1793843,19.9555826 C29.2765698,19.9555826 29.1508332,20.6478399 29.1508332,21.9398116 L29.1424507,24.4194174 L33.75,24.4194174 L33.2107295,29.3731854 L29.1424507,29.3731854 L29.1424507,43.75 L29.1433821,43.75 Z" id="Shape" fill="#4A4A4A"></path>
                </g>
            </g>
        </g>
    </g>
	
</svg>
<svg id="icon-instagramCircle" width="55px" height="55px" viewBox="0 0 55 55" x="1870" y="0">
	<g>
   <defs>
        <circle id="path-1" cx="27.5" cy="27.5" r="27.5"></circle>
        <mask id="mask-2" maskContentUnits="userSpaceOnUse" maskUnits="objectBoundingBox" x="0" y="0" width="55" height="55" fill="white">
            <use xlink:href="#path-1"></use>
        </mask>
    </defs>
    <g id="Symbols" stroke="none" stroke-width="1" fill="none" fill-rule="evenodd">
        <g id="social-median-icons" transform="translate(-325.000000, 0.000000)">
            <g id="social-media">
                <g id="instagram" transform="translate(325.000000, 0.000000)">
                    <rect id="Rectangle" x="0" y="0" width="55" height="55"></rect>
                    <use id="Oval" stroke="#4A4A4A" mask="url(#mask-2)" stroke-width="3" xlink:href="#path-1"></use>
                    <path d="M35.1684501,15 L19.8315499,15 C17.1680974,15 15,17.1666275 15,19.8315499 L15,35.1684501 C15,37.8333725 17.1680974,40 19.8315499,40 L35.1684501,40 C37.8319026,40 40,37.8333725 40,35.1684501 L40,19.8315499 C40,17.1666275 37.8319026,15 35.1684501,15 L35.1684501,15 Z M36.5545626,17.8824671 L37.1072437,17.8795273 L37.1072437,22.1172389 L32.8827611,22.130468 L32.8680621,17.8927563 L36.5545626,17.8824671 L36.5545626,17.8824671 Z M23.9325611,24.9335607 C24.7321849,23.8252587 26.0315734,23.0991298 27.5,23.0991298 C28.9684266,23.0991298 30.2678151,23.8252587 31.0674389,24.9335607 C31.5892521,25.6567498 31.9008702,26.5416275 31.9008702,27.5 C31.9008702,29.9253293 29.9267992,31.8994003 27.5,31.8994003 C25.0746707,31.8994003 23.1005997,29.9253293 23.1005997,27.5 C23.1005997,26.5416275 23.4122178,25.6567498 23.9325611,24.9335607 L23.9325611,24.9335607 Z M37.5643815,35.1684501 C37.5643815,36.4898871 36.4898871,37.5643815 35.1684501,37.5643815 L19.8315499,37.5643815 C18.5101129,37.5643815 17.4356185,36.4898871 17.4356185,35.1684501 L17.4356185,24.9335607 L21.1691557,24.9335607 C20.8457785,25.7273048 20.6649812,26.5930738 20.6649812,27.5 C20.6649812,31.2688147 23.7311853,34.3364887 27.5,34.3364887 C31.2702846,34.3364887 34.3364887,31.2688147 34.3364887,27.5 C34.3364887,26.5930738 34.1527516,25.7273048 33.8323142,24.9335607 L37.5643815,24.9335607 L37.5643815,35.1684501 L37.5643815,35.1684501 Z" id="Shape" fill="#4A4A4A"></path>
                </g>
            </g>
        </g>
    </g>
	</g>
</svg>
<svg id="icon-linkedinCircle" width="55px" height="55px" viewBox="0 0 55 55" x="1941" y="0">
    <g>
	<defs>
        <ellipse id="path-1" cx="27.5" cy="28" rx="27.5" ry="28"></ellipse>
        <mask id="mask-2" maskContentUnits="userSpaceOnUse" maskUnits="objectBoundingBox" x="0" y="0" width="55" height="56" fill="white">
            <use xlink:href="#path-1"></use>
        </mask>
    </defs>
    <g id="Symbols" stroke="none" stroke-width="1" fill="none" fill-rule="evenodd">
        <g id="social-median-icons" transform="translate(-162.000000, 0.000000)">
            <g id="social-media">
                <g id="linkedin" transform="translate(162.000000, 0.000000)">
                    <rect id="Rectangle" x="0" y="0" width="55" height="56"></rect>
                    <use id="Oval" stroke="#4A4A4A" mask="url(#mask-2)" stroke-width="3" xlink:href="#path-1"></use>
                    <path d="M15.6305856,23.4348712 L20.5032926,23.4348712 L20.5032926,40.7256429 L15.6305856,40.7256429 L15.6305856,23.4348712 Z M17.9427328,21.2720986 L17.9074553,21.2720986 C16.1435795,21.2720986 15,19.9503137 15,18.2764875 C15,16.568435 16.1773871,15.2727273 17.9765405,15.2727273 C19.7742239,15.2727273 20.8795861,16.5651754 20.9148636,18.271598 C20.9148636,19.9454243 19.7742239,21.2720986 17.9427328,21.2720986 L17.9427328,21.2720986 Z M40,40.7272727 L34.474659,40.7272727 L34.474659,31.7779252 C34.474659,29.4358724 33.6103598,27.8386477 31.7097836,27.8386477 C30.256056,27.8386477 29.4476129,28.9159594 29.0713194,29.9574151 C28.9302093,30.3290143 28.9522578,30.8489272 28.9522578,31.37047 L28.9522578,40.7272727 L23.4783631,40.7272727 C23.4783631,40.7272727 23.5489182,24.875633 23.4783631,23.4348712 L28.9522578,23.4348712 L28.9522578,26.1485233 C29.275635,24.9620135 31.0248119,23.2686294 33.8161453,23.2686294 C37.2792215,23.2686294 40,25.7573662 40,31.1113284 L40,40.7272727 L40,40.7272727 Z" id="Shape" fill="#4A4A4A"></path>
                </g>
            </g>
        </g>
    </g>
	</g>
</svg>
<svg id="icon-twitterCircle" width="32px" height="32px" viewBox="0 0 55 55" x="2012" y="0">
   <g>
    <defs>
        <circle id="path-1" cx="27.5" cy="27.5" r="27.5"></circle>
        <mask id="mask-2" maskContentUnits="userSpaceOnUse" maskUnits="objectBoundingBox" x="0" y="0" width="55" height="55" fill="white">
            <use xlink:href="#path-1"></use>
        </mask>
    </defs>
    <g id="Symbols" stroke="none" stroke-width="1" fill="none" fill-rule="evenodd">
        <g id="social-median-icons" transform="translate(-81.000000, 0.000000)">
            <g id="social-media">
                <g id="twitter" transform="translate(81.000000, 0.000000)">
                    <rect id="Rectangle" x="0" y="0" width="55" height="55"></rect>
                    <use id="Oval" stroke="#4A4A4A" mask="url(#mask-2)" stroke-width="3" xlink:href="#path-1"></use>
                    <path d="M38.1576862,21.0571645 C39.270118,20.3551567 40.1237014,19.2420194 40.5243001,17.9160046 C39.4827434,18.5676369 38.3317926,19.0388921 37.1038035,19.2940199 C36.1238774,18.1890077 34.7233228,17.5 33.173314,17.5 C30.199639,17.5 27.7898838,20.0431533 27.7898838,23.1794381 C27.7898838,23.6246931 27.8345659,24.0585729 27.9270118,24.4729525 C23.4526325,24.2356998 19.4851646,21.9769247 16.8273464,18.5383865 C16.3635763,19.3801459 16.0985649,20.3551567 16.0985649,21.3951683 C16.0985649,23.3646902 17.0492164,25.1034595 18.4944532,26.1239708 C17.6115954,26.0947205 16.7811234,25.8363426 16.0538827,25.4138379 L16.0538827,25.4837137 C16.0538827,28.2364943 17.9089628,30.5326448 20.3757264,31.0526506 C19.9227417,31.1859021 19.4481863,31.2525278 18.9551418,31.2525278 C18.6084698,31.2525278 18.2695017,31.2184024 17.9428597,31.1517767 C18.626959,33.4073017 20.6160856,35.05182 22.9734548,35.0956955 C21.1291601,36.6199624 18.8072284,37.5267225 16.2849974,37.5267225 C15.8505018,37.5267225 15.4206286,37.5023472 15,37.4487217 C17.3835622,39.0591145 20.2139461,40 23.2554147,40 C33.1625286,40 38.5767741,31.3451538 38.5767741,23.8391954 C38.5767741,23.5921927 38.5736926,23.346815 38.5629072,23.1046873 C39.6152492,22.3035534 40.5304631,21.3025423 41.25,20.1634046 C40.2839408,20.6151596 39.2454658,20.920663 38.1576862,21.0571645 Z" id="Shape" fill="#4A4A4A"></path>
                </g>
            </g>
        </g>
    </g>
    </g>
</svg>
<svg id="icon-youtubeCircle" width="32px" height="32px" viewBox="0 0 55 55" x="2060" y="0">
    <g>
	<defs>
        <ellipse id="path-1" cx="27.5" cy="27.5119931" rx="27.5" ry="26.8888889"></ellipse>
        <mask id="mask-2" maskContentUnits="userSpaceOnUse" maskUnits="objectBoundingBox" x="0" y="0" width="55" height="53.7777778" fill="white">
            <use xlink:href="#path-1"></use>
        </mask>
    </defs>
    <g id="Symbols" stroke="none" stroke-width="1" fill="none" fill-rule="evenodd">
        <g id="social-median-icons" transform="translate(-243.000000, 0.000000)">
            <g id="social-media">
                <g id="youtube" transform="translate(243.000000, 0.000000)">
                    <rect id="Rectangle" x="0" y="0" width="55" height="53.7777778"></rect>
                    <use id="Oval" stroke="#4A4A4A" mask="url(#mask-2)" stroke-width="3" xlink:href="#path-1"></use>
                    <path d="M19.9068893,34.2432242 L19.9276575,29.2917147 L20.874093,29.2820116 L21.8195395,29.2703678 L21.8086609,28.5077014 L21.7967934,27.7440648 L19.0652837,27.7333913 L16.3357519,27.7227179 L16.3357519,28.497028 L16.3357519,29.2703678 L17.2594413,29.2820116 L18.1831307,29.2917147 L18.1940092,34.202471 C18.1989541,36.9028533 18.2127995,39.1365149 18.2236781,39.164654 C18.2385125,39.2044368 18.4303709,39.2141399 19.0642947,39.2054071 L19.8861211,39.1947337 L19.9068893,34.2432242 Z M35.6620235,33.8948817 C35.623454,33.7959097 35.6768579,32.6519102 35.7282838,32.4859866 C35.8479481,32.0959205 36.102111,31.9057391 36.5026401,31.9057391 C36.8359199,31.9057391 37.0475575,32.0318799 37.1899679,32.3152114 C37.2799633,32.4947194 37.288864,32.5713741 37.3027094,33.2350685 L37.3165549,33.957952 L36.5006622,33.957952 C35.799489,33.957952 35.6827916,33.9492192 35.6620235,33.8948817 L35.6620235,33.8948817 Z M37.1850231,39.229665 C37.9841034,39.0094038 38.5369325,38.4737908 38.7456032,37.7179166 C38.7802168,37.5888649 38.8207642,37.2211161 38.8346096,36.901883 L38.8583447,36.3216356 L38.0889332,36.3216356 L37.3185328,36.3216356 L37.2997425,36.8417236 C37.2779854,37.4326445 37.2156809,37.63544 36.9961316,37.8246511 C36.7627368,38.025506 36.3335278,38.0400607 36.0546409,37.8557011 C35.7223501,37.63544 35.6402663,37.2638099 35.6570787,36.05674 L35.6689462,35.2009236 L37.262162,35.1912204 L38.8553778,35.1795767 L38.8346096,33.9065254 C38.8088967,32.4859866 38.7792278,32.270577 38.5359435,31.766014 C38.0721209,30.8102552 36.7874608,30.3280095 35.7203722,30.7093426 C34.9153581,30.9975257 34.4396679,31.5166434 34.2487985,32.320063 C34.1815492,32.6033945 34.1736375,32.8576166 34.1736375,34.936028 C34.1736375,37.4850414 34.1825381,37.5888649 34.4475796,38.1108936 C34.9212918,39.0394835 36.1070558,39.5246402 37.1850231,39.229665 L37.1850231,39.229665 Z M30.8764423,37.7780761 C30.9743494,37.7130651 31.0386318,37.6228259 31.0890688,37.4821305 C31.1533513,37.2968006 31.159285,37.0610144 31.1503844,34.8748982 C31.1414838,32.5966023 31.136539,32.462699 31.0613779,32.3132708 C30.8685306,31.9319376 30.3829508,31.8950657 29.9379185,32.2288535 L29.7915523,32.3375286 L29.7915523,34.936028 L29.7915523,37.5345274 L29.9369295,37.6432025 C30.2662535,37.8896621 30.6272242,37.9410887 30.8764423,37.7780761 L30.8764423,37.7780761 Z M31.840679,39.24519 C32.0829744,39.1762977 32.3757068,38.8939365 32.5072386,38.6057534 C32.7604125,38.0536451 32.7614015,38.0400607 32.7614015,34.936028 C32.7614015,32.3879849 32.7534898,32.0736033 32.6892074,31.7980343 C32.4805366,30.9160194 32.0256147,30.530805 31.260159,30.5870831 C30.831939,30.6200738 30.4947034,30.7869677 30.0902184,31.1702415 C29.9141834,31.3361651 29.7569387,31.4729793 29.7391374,31.4729793 C29.723314,31.4729793 29.7084796,30.6288066 29.7084796,29.5983338 L29.7084796,27.7236882 L28.9608252,27.7236882 L28.2131709,27.7236882 L28.2131709,33.4689141 L28.2131709,39.2151103 L28.9608252,39.2151103 L29.7084796,39.2151103 L29.7084796,38.8279552 C29.7084796,38.5708221 29.724303,38.4408001 29.7549607,38.4408001 C29.7796848,38.4408001 29.9478081,38.576644 30.1287879,38.7435379 C30.7102969,39.2801213 31.2136779,39.4276089 31.840679,39.24519 L31.840679,39.24519 Z M23.8825116,39.2073478 C24.1811778,39.0986726 24.5322589,38.8599755 24.8279581,38.5650003 C24.9634458,38.4291564 25.0989334,38.3185406 25.1286022,38.3185406 C25.1681607,38.3185406 25.1820061,38.4291564 25.1820061,38.7668255 L25.1820061,39.2151103 L25.9296605,39.2151103 L26.6773148,39.2151103 L26.6773148,34.9564046 L26.6773148,30.6986692 L25.9296605,30.6986692 L25.1820061,30.6986692 L25.1820061,33.9831802 L25.1820061,37.2686615 L24.8596049,37.5820727 C24.604453,37.8314433 24.4976452,37.9071277 24.3394115,37.9498215 C24.0723921,38.022595 23.9022909,37.9721387 23.7925162,37.7868089 C23.7094435,37.6490244 23.7074656,37.5849837 23.6955981,34.1723913 L23.6847195,30.6986692 L22.9370651,30.6986692 L22.1913887,30.6986692 L22.1913887,34.3868306 C22.1913887,38.4048985 22.1953446,38.4922267 22.4247835,38.8793818 C22.6759795,39.3024385 23.2634222,39.4353714 23.8825116,39.2073478 L23.8825116,39.2073478 Z M24.5174245,42.7606356 C23.546265,42.7441402 22.3970926,42.7179418 21.9629388,42.7024168 C19.0484714,42.5995635 17.0478037,42.4899181 16.6482636,42.4103524 C16.0786221,42.2977961 15.4417314,41.9193738 15.0718601,41.474 C14.4804615,40.7608196 14.1639941,39.8953 14.0107052,38.5630596 C13.6556682,35.4658191 13.6635799,31.8533422 14.0324623,28.8647768 C14.1946519,27.5548536 14.5971589,26.608798 15.2726191,25.9489849 C15.6583138,25.571533 16.0291741,25.3619453 16.5226655,25.2377452 C17.5927211,24.9689683 25.965263,24.7554994 31.058411,24.8661151 C34.0005694,24.9301558 37.1790893,25.064059 38.0236618,25.1581794 C39.1164635,25.2804389 39.883897,25.8354582 40.414969,26.8882483 C40.816487,27.682935 40.944063,28.301995 41.1072415,30.2096312 C41.2348175,31.7194389 41.2664642,32.660643 41.2427291,34.4042962 C41.2160272,36.4904701 41.0805396,38.3282438 40.8778026,39.359687 C40.6641871,40.4503193 40.1598171,41.3798795 39.506114,41.8834722 C39.002733,42.2725679 38.4657273,42.446254 37.6201658,42.4928291 C37.3689698,42.5073838 37.0515134,42.52679 36.9140478,42.5374635 C36.4274791,42.5743354 33.8186006,42.6771886 32.3875743,42.7169715 C30.2613087,42.7751903 26.5408382,42.7955669 24.5174245,42.7606356 Z M21.8935999,23.8343453 C21.8579973,23.7770969 21.8639311,20.4246639 21.8995337,19.9501806 C21.9460148,19.3417941 21.841185,18.8624593 21.3961526,17.6379237 C21.2517643,17.2410655 20.9906787,16.4706366 20.8166216,15.9272611 C19.5576745,11.998462 19.6239349,12.2284263 19.7445881,12.227456 C20.5743262,12.2206638 21.5979006,12.2255153 21.6097681,12.2371591 C21.6176798,12.2449216 21.8866772,13.2035913 22.2080894,14.3689377 C22.5304906,15.5333139 22.798499,16.502657 22.8054217,16.5240039 C22.8113555,16.5434102 23.000247,15.8651611 23.2247411,15.0161368 C23.6944975,13.2346413 23.95855,12.2517138 23.9684396,12.242981 C23.9892078,12.2235747 24.2226025,12.2196935 24.9870692,12.2235747 L25.8326307,12.2284263 L25.8138404,12.3613592 C25.799006,12.469064 25.2214529,14.3708784 24.6171979,16.3027724 C24.5519265,16.5162414 24.3828142,17.0664091 24.2433707,17.5263377 C24.1039272,17.9852959 23.9358039,18.5306121 23.8685546,18.7382592 L23.7469124,19.1166814 L23.7469124,21.4764837 C23.7469124,23.6897686 23.7419676,23.8382266 23.6747182,23.8556922 C23.5224183,23.8964454 21.9203018,23.8770391 21.8935999,23.8343453 Z M32.8216165,23.9760111 C32.404275,23.9216736 32.1600017,23.7635125 31.9928674,23.4384575 C31.7832077,23.0309258 31.7832077,23.0328664 31.7832077,18.9721047 L31.7832077,15.1830307 L32.6258023,15.1830307 L33.4674079,15.1830307 L33.4852092,18.6761591 C33.5039994,22.4700847 33.4990546,22.3817861 33.7304714,22.4390346 C33.943098,22.4904612 34.1784707,22.3788752 34.4712031,22.0858405 L34.7520679,21.8054199 L34.7629465,18.4937402 L34.7728361,15.1830307 L35.6144417,15.171387 L36.4560473,15.1616838 L36.4560473,19.4980146 L36.4560473,23.8353157 L36.3413279,23.8586032 C36.2038623,23.8867423 34.9281029,23.8848016 34.825251,23.8556922 C34.7629465,23.8391969 34.7530569,23.7829187 34.7530569,23.443309 L34.7530569,23.0493618 L34.5137284,23.2783557 C33.9638662,23.8032953 33.3704897,24.0478143 32.8216165,23.9760111 L32.8216165,23.9760111 Z M28.5809527,22.3196861 C28.8697292,22.1042765 28.8717071,22.0858405 28.8865415,19.6474429 C28.899398,17.7524207 28.8924753,17.4302766 28.8341266,17.1721733 C28.7550098,16.8228604 28.6165553,16.6579071 28.34558,16.5851336 C27.9954879,16.4939242 27.6750646,16.6899275 27.5623231,17.0654388 C27.4772724,17.3545922 27.4782614,21.6530807 27.564301,21.9422341 C27.6295724,22.1595844 27.8382431,22.3973111 27.992521,22.4303018 C28.19328,22.4720253 28.4395313,22.4254502 28.5819416,22.3196861 L28.5809527,22.3196861 Z M27.9213158,23.9740705 C27.1677277,23.8848016 26.4754552,23.4501012 26.1421754,22.8562694 C25.8029618,22.2517641 25.7713151,21.9354419 25.7910943,19.2729019 C25.8069177,17.2109858 25.8128515,17.0819341 25.8959242,16.7859885 C26.0947053,16.0825113 26.479411,15.6031764 27.0757544,15.3130527 C27.8946139,14.9161945 28.7777559,14.9676211 29.5501342,15.4585997 C30.0426367,15.7700703 30.3413029,16.2222364 30.5015145,16.8946636 C30.5717307,17.1915795 30.5786534,17.4196032 30.5786534,19.5018958 C30.5786534,22.0344139 30.5667859,22.1809312 30.3017444,22.7291583 C30.0475815,23.2579792 29.4720063,23.7237296 28.8717071,23.8877126 C28.6066656,23.9585455 28.1467989,24.0012393 27.9213158,23.9740705 L27.9213158,23.9740705 Z" id="Shape" fill="#4A4A4A"></path>
                </g>
            </g>
        </g>
    </g>
	</g>
</svg>
</svg>
