<svg width="26" height="26" viewBox="0 0 26 26" xmlns="http://www.w3.org/2000/svg">
    <title>
        twitter
    </title>
    <path d="M24.053 1.804C23.137.887 22.033.43 20.743.43H5.115c-1.29 0-2.395.457-3.312 1.374C.887 2.72.43 3.824.43 5.116V20.74c0 1.292.457 2.397 1.374 3.314.917.917 2.02 1.375 3.312 1.375H20.74c1.292 0 2.397-.46 3.313-1.376.917-.917 1.376-2.022 1.376-3.313V5.117c0-1.29-.46-2.395-1.377-3.312zm-4.5 8.244c.01.098.017.244.017.44 0 .91-.134 1.825-.4 2.742a9.822 9.822 0 0 1-1.22 2.637 10.262 10.262 0 0 1-1.96 2.23c-.76.645-1.672 1.16-2.735 1.546a9.95 9.95 0 0 1-3.418.578 9.59 9.59 0 0 1-5.24-1.53c.26.033.53.05.813.05 1.573 0 2.99-.49 4.248-1.465a3.245 3.245 0 0 1-1.977-.684A3.475 3.475 0 0 1 6.47 14.9c.282.044.494.065.635.065.238 0 .515-.043.83-.13-.792-.152-1.46-.545-2.002-1.18a3.25 3.25 0 0 1-.813-2.172v-.032c.575.27 1.117.412 1.627.423-.987-.66-1.48-1.61-1.48-2.847 0-.608.156-1.183.47-1.725A9.69 9.69 0 0 0 8.86 9.82c1.226.63 2.54.982 3.94 1.058a3.143 3.143 0 0 1-.082-.78c0-.945.333-1.75 1-2.418.668-.667 1.474-1 2.417-1 1 0 1.83.357 2.49 1.073a6.8 6.8 0 0 0 2.182-.83c-.27.835-.776 1.47-1.514 1.904a7.247 7.247 0 0 0 1.97-.553 6.644 6.644 0 0 1-1.71 1.774z" fill="#202334" fill-rule="evenodd"/>
</svg>
