<?xml version="1.0" encoding="UTF-8" standalone="no"?>
<svg width="55px" height="55px" viewBox="0 0 55 55" version="1.1" xmlns="http://www.w3.org/2000/svg" xmlns:xlink="http://www.w3.org/1999/xlink">
    <!-- Generator: Sketch 3.8.3 (29802) - http://www.bohemiancoding.com/sketch -->
    <title>instagram</title>
    <desc>Created with Sketch.</desc>
    <defs>
        <circle id="path-1" cx="27.5" cy="27.5" r="27.5"></circle>
        <mask id="mask-2" maskContentUnits="userSpaceOnUse" maskUnits="objectBoundingBox" x="0" y="0" width="55" height="55" fill="white">
            <use xlink:href="#path-1"></use>
        </mask>
    </defs>
    <g id="Symbols" stroke="none" stroke-width="1" fill="none" fill-rule="evenodd">
        <g id="social-median-icons" transform="translate(-325.000000, 0.000000)">
            <g id="social-media">
                <g id="instagram" transform="translate(325.000000, 0.000000)">
                    <rect id="Rectangle" x="0" y="0" width="55" height="55"></rect>
                    <use id="Oval" stroke="#4A4A4A" mask="url(#mask-2)" stroke-width="3" xlink:href="#path-1"></use>
                    <path d="M35.1684501,15 L19.8315499,15 C17.1680974,15 15,17.1666275 15,19.8315499 L15,35.1684501 C15,37.8333725 17.1680974,40 19.8315499,40 L35.1684501,40 C37.8319026,40 40,37.8333725 40,35.1684501 L40,19.8315499 C40,17.1666275 37.8319026,15 35.1684501,15 L35.1684501,15 Z M36.5545626,17.8824671 L37.1072437,17.8795273 L37.1072437,22.1172389 L32.8827611,22.130468 L32.8680621,17.8927563 L36.5545626,17.8824671 L36.5545626,17.8824671 Z M23.9325611,24.9335607 C24.7321849,23.8252587 26.0315734,23.0991298 27.5,23.0991298 C28.9684266,23.0991298 30.2678151,23.8252587 31.0674389,24.9335607 C31.5892521,25.6567498 31.9008702,26.5416275 31.9008702,27.5 C31.9008702,29.9253293 29.9267992,31.8994003 27.5,31.8994003 C25.0746707,31.8994003 23.1005997,29.9253293 23.1005997,27.5 C23.1005997,26.5416275 23.4122178,25.6567498 23.9325611,24.9335607 L23.9325611,24.9335607 Z M37.5643815,35.1684501 C37.5643815,36.4898871 36.4898871,37.5643815 35.1684501,37.5643815 L19.8315499,37.5643815 C18.5101129,37.5643815 17.4356185,36.4898871 17.4356185,35.1684501 L17.4356185,24.9335607 L21.1691557,24.9335607 C20.8457785,25.7273048 20.6649812,26.5930738 20.6649812,27.5 C20.6649812,31.2688147 23.7311853,34.3364887 27.5,34.3364887 C31.2702846,34.3364887 34.3364887,31.2688147 34.3364887,27.5 C34.3364887,26.5930738 34.1527516,25.7273048 33.8323142,24.9335607 L37.5643815,24.9335607 L37.5643815,35.1684501 L37.5643815,35.1684501 Z" id="Shape" fill="#4A4A4A"></path>
                </g>
            </g>
        </g>
    </g>
</svg>