<?xml version="1.0" encoding="UTF-8" standalone="no"?>
<svg version="1.1" xmlns="http://www.w3.org/2000/svg" xmlns:xlink="http://www.w3.org/1999/xlink" width="200" height="1000" viewBox="0 0 200 1000">

<!-- <defs> -->
    <!-- Generator: Sketch 3.8.3 (29802) - http://www.bohemiancoding.com/sketch -->
<svg id="facebook" width="55" height="55" viewBox="0 0 55 55" x="0px" y="0px">
	<defs>
        <circle id="path-1" cx="27.5" cy="27.5" r="27.5"></circle>
        <mask id="mask-2" maskContentUnits="userSpaceOnUse" maskUnits="objectBoundingBox" x="0" y="0" width="55" height="55" fill="white">
            <use xlink:href="#path-1"></use>
        </mask>
    </defs>
     <g id="Symbols" stroke="none" stroke-width="1" fill="none" fill-rule="evenodd">
        <g id="social-median-icons">
            <g id="social-media">
                <g id="facebook">
                    <rect id="Rectangle" x="0" y="0" width="55" height="55"></rect>
                    <use id="Oval" stroke="#4A4A4A" mask="url(#mask-2)" stroke-width="3" xlink:href="#path-1"></use>
                    <path d="M29.1433821,43.75 L23.0465522,43.75 L23.0465522,29.3731854 L20,29.3731854 L20,24.4194174 L23.0465522,24.4194174 L23.0465522,21.4453421 C23.0465522,17.4043013 24.7658843,15 29.6537797,15 L33.7220585,15 L33.7220585,19.9555826 L31.1793843,19.9555826 C29.2765698,19.9555826 29.1508332,20.6478399 29.1508332,21.9398116 L29.1424507,24.4194174 L33.75,24.4194174 L33.2107295,29.3731854 L29.1424507,29.3731854 L29.1424507,43.75 L29.1433821,43.75 Z" id="Shape" fill="#4A4A4A"></path>
                </g>
            </g>
        </g>
    </g>
</svg>

<svg id="instagram" width="55" height="55" viewBox="0 0 55 55" x="0" y="55">
    <defs>
        <circle id="path-1" cx="27.5" cy="27.5" r="27.5"></circle>
        <mask id="mask-2" maskContentUnits="userSpaceOnUse" maskUnits="objectBoundingBox" x="0" y="0" width="55" height="55" fill="white">
            <use xlink:href="#path-1"></use>
        </mask>
    </defs>
    <g id="Symbols" stroke="none" stroke-width="1" fill="none" fill-rule="evenodd">
        <g id="social-median-icons" transform="translate(-325.000000, 0.000000)">
            <g id="social-media">
                <g id="instagram" transform="translate(325.000000, 0.000000)">
                    <rect id="Rectangle" x="0" y="0" width="55" height="55"></rect>
                    <use id="Oval" stroke="#4A4A4A" mask="url(#mask-2)" stroke-width="3" xlink:href="#path-1"></use>
                    <path d="M35.1684501,15 L19.8315499,15 C17.1680974,15 15,17.1666275 15,19.8315499 L15,35.1684501 C15,37.8333725 17.1680974,40 19.8315499,40 L35.1684501,40 C37.8319026,40 40,37.8333725 40,35.1684501 L40,19.8315499 C40,17.1666275 37.8319026,15 35.1684501,15 L35.1684501,15 Z M36.5545626,17.8824671 L37.1072437,17.8795273 L37.1072437,22.1172389 L32.8827611,22.130468 L32.8680621,17.8927563 L36.5545626,17.8824671 L36.5545626,17.8824671 Z M23.9325611,24.9335607 C24.7321849,23.8252587 26.0315734,23.0991298 27.5,23.0991298 C28.9684266,23.0991298 30.2678151,23.8252587 31.0674389,24.9335607 C31.5892521,25.6567498 31.9008702,26.5416275 31.9008702,27.5 C31.9008702,29.9253293 29.9267992,31.8994003 27.5,31.8994003 C25.0746707,31.8994003 23.1005997,29.9253293 23.1005997,27.5 C23.1005997,26.5416275 23.4122178,25.6567498 23.9325611,24.9335607 L23.9325611,24.9335607 Z M37.5643815,35.1684501 C37.5643815,36.4898871 36.4898871,37.5643815 35.1684501,37.5643815 L19.8315499,37.5643815 C18.5101129,37.5643815 17.4356185,36.4898871 17.4356185,35.1684501 L17.4356185,24.9335607 L21.1691557,24.9335607 C20.8457785,25.7273048 20.6649812,26.5930738 20.6649812,27.5 C20.6649812,31.2688147 23.7311853,34.3364887 27.5,34.3364887 C31.2702846,34.3364887 34.3364887,31.2688147 34.3364887,27.5 C34.3364887,26.5930738 34.1527516,25.7273048 33.8323142,24.9335607 L37.5643815,24.9335607 L37.5643815,35.1684501 L37.5643815,35.1684501 Z" id="Shape" fill="#4A4A4A"></path>
                </g>
            </g>
        </g>
    </g>
</svg>

<svg id="linkedin" width="55" height="55" viewBox="0 0 55 55" x="0" y="110" >
	<defs>
        <ellipse id="path-1" cx="27.5" cy="28" rx="27.5" ry="28"></ellipse>
        <mask id="mask-2" maskContentUnits="userSpaceOnUse" maskUnits="objectBoundingBox" x="0" y="0" width="55" height="56" fill="white">
            <use xlink:href="#path-1"></use>
        </mask>
    </defs>
    <g id="Symbols" stroke="none" stroke-width="1" fill="none" fill-rule="evenodd">
        <g id="social-median-icons" transform="translate(-162.000000, 0.000000)">
            <g id="social-media">
                <g id="linkedin" transform="translate(162.000000, 0.000000)">
                    <rect id="Rectangle" x="0" y="0" width="55" height="55"></rect>
                    <use id="Oval" stroke="#4A4A4A" mask="url(#mask-2)" stroke-width="3" xlink:href="#path-1"></use>
                    <path d="M15.6305856,23.4348712 L20.5032926,23.4348712 L20.5032926,40.7256429 L15.6305856,40.7256429 L15.6305856,23.4348712 Z M17.9427328,21.2720986 L17.9074553,21.2720986 C16.1435795,21.2720986 15,19.9503137 15,18.2764875 C15,16.568435 16.1773871,15.2727273 17.9765405,15.2727273 C19.7742239,15.2727273 20.8795861,16.5651754 20.9148636,18.271598 C20.9148636,19.9454243 19.7742239,21.2720986 17.9427328,21.2720986 L17.9427328,21.2720986 Z M40,40.7272727 L34.474659,40.7272727 L34.474659,31.7779252 C34.474659,29.4358724 33.6103598,27.8386477 31.7097836,27.8386477 C30.256056,27.8386477 29.4476129,28.9159594 29.0713194,29.9574151 C28.9302093,30.3290143 28.9522578,30.8489272 28.9522578,31.37047 L28.9522578,40.7272727 L23.4783631,40.7272727 C23.4783631,40.7272727 23.5489182,24.875633 23.4783631,23.4348712 L28.9522578,23.4348712 L28.9522578,26.1485233 C29.275635,24.9620135 31.0248119,23.2686294 33.8161453,23.2686294 C37.2792215,23.2686294 40,25.7573662 40,31.1113284 L40,40.7272727 L40,40.7272727 Z" id="Shape" fill="#4A4A4A"></path>
                </g>
            </g>
        </g>
    </g>
</svg>

<svg id="twitter" x="0" y="165">
	<defs>
        <circle id="path-1" cx="27.5" cy="27.5" r="27.5"></circle>
        <mask id="mask-2" maskContentUnits="userSpaceOnUse" maskUnits="objectBoundingBox" x="0" y="0" width="55" height="55" fill="white">
            <use xlink:href="#path-1"></use>
        </mask>
    </defs>
    <g id="Symbols" stroke="none" stroke-width="1" fill="none" fill-rule="evenodd">
        <g id="social-median-icons" transform="translate(-81.000000, 0.000000)">
            <g id="social-media">
                <g id="twitter" transform="translate(81.000000, 0.000000)">
                    <rect id="Rectangle" x="0" y="0" width="55" height="55"></rect>
                    <use id="Oval" stroke="#4A4A4A" mask="url(#mask-2)" stroke-width="3" xlink:href="#path-1"></use>
                    <path d="M38.1576862,21.0571645 C39.270118,20.3551567 40.1237014,19.2420194 40.5243001,17.9160046 C39.4827434,18.5676369 38.3317926,19.0388921 37.1038035,19.2940199 C36.1238774,18.1890077 34.7233228,17.5 33.173314,17.5 C30.199639,17.5 27.7898838,20.0431533 27.7898838,23.1794381 C27.7898838,23.6246931 27.8345659,24.0585729 27.9270118,24.4729525 C23.4526325,24.2356998 19.4851646,21.9769247 16.8273464,18.5383865 C16.3635763,19.3801459 16.0985649,20.3551567 16.0985649,21.3951683 C16.0985649,23.3646902 17.0492164,25.1034595 18.4944532,26.1239708 C17.6115954,26.0947205 16.7811234,25.8363426 16.0538827,25.4138379 L16.0538827,25.4837137 C16.0538827,28.2364943 17.9089628,30.5326448 20.3757264,31.0526506 C19.9227417,31.1859021 19.4481863,31.2525278 18.9551418,31.2525278 C18.6084698,31.2525278 18.2695017,31.2184024 17.9428597,31.1517767 C18.626959,33.4073017 20.6160856,35.05182 22.9734548,35.0956955 C21.1291601,36.6199624 18.8072284,37.5267225 16.2849974,37.5267225 C15.8505018,37.5267225 15.4206286,37.5023472 15,37.4487217 C17.3835622,39.0591145 20.2139461,40 23.2554147,40 C33.1625286,40 38.5767741,31.3451538 38.5767741,23.8391954 C38.5767741,23.5921927 38.5736926,23.346815 38.5629072,23.1046873 C39.6152492,22.3035534 40.5304631,21.3025423 41.25,20.1634046 C40.2839408,20.6151596 39.2454658,20.920663 38.1576862,21.0571645 Z" id="Shape" fill="#4A4A4A"></path>
                </g>
            </g>
        </g>
    </g>
</svg>

<svg id="youtube" width="55" height="55" viewBox="0 0 55 55" x="0" y="220">
	<defs>
        <ellipse id="path-1" cx="27.5" cy="27.5119931" rx="27.5" ry="26.8888889"></ellipse>
        <mask id="mask-2" maskContentUnits="userSpaceOnUse" maskUnits="objectBoundingBox" x="0" y="0" width="55" height="53.7777778" fill="white">
            <use xlink:href="#path-1"></use>
        </mask>
    </defs>
    <g id="Symbols" stroke="none" stroke-width="1" fill="none" fill-rule="evenodd">
        <g id="social-median-icons" transform="translate(-243.000000, 0.000000)">
            <g id="social-media">
                <g id="youtube" transform="translate(243.000000, 0.000000)">
                    <rect id="Rectangle" x="0" y="0" width="55" height="53.7777778"></rect>
                    <use id="Oval" stroke="#4A4A4A" mask="url(#mask-2)" stroke-width="3" xlink:href="#path-1"></use>
                    <path d="M19.9068893,34.2432242 L19.9276575,29.2917147 L20.874093,29.2820116 L21.8195395,29.2703678 L21.8086609,28.5077014 L21.7967934,27.7440648 L19.0652837,27.7333913 L16.3357519,27.7227179 L16.3357519,28.497028 L16.3357519,29.2703678 L17.2594413,29.2820116 L18.1831307,29.2917147 L18.1940092,34.202471 C18.1989541,36.9028533 18.2127995,39.1365149 18.2236781,39.164654 C18.2385125,39.2044368 18.4303709,39.2141399 19.0642947,39.2054071 L19.8861211,39.1947337 L19.9068893,34.2432242 Z M35.6620235,33.8948817 C35.623454,33.7959097 35.6768579,32.6519102 35.7282838,32.4859866 C35.8479481,32.0959205 36.102111,31.9057391 36.5026401,31.9057391 C36.8359199,31.9057391 37.0475575,32.0318799 37.1899679,32.3152114 C37.2799633,32.4947194 37.288864,32.5713741 37.3027094,33.2350685 L37.3165549,33.957952 L36.5006622,33.957952 C35.799489,33.957952 35.6827916,33.9492192 35.6620235,33.8948817 L35.6620235,33.8948817 Z M37.1850231,39.229665 C37.9841034,39.0094038 38.5369325,38.4737908 38.7456032,37.7179166 C38.7802168,37.5888649 38.8207642,37.2211161 38.8346096,36.901883 L38.8583447,36.3216356 L38.0889332,36.3216356 L37.3185328,36.3216356 L37.2997425,36.8417236 C37.2779854,37.4326445 37.2156809,37.63544 36.9961316,37.8246511 C36.7627368,38.025506 36.3335278,38.0400607 36.0546409,37.8557011 C35.7223501,37.63544 35.6402663,37.2638099 35.6570787,36.05674 L35.6689462,35.2009236 L37.262162,35.1912204 L38.8553778,35.1795767 L38.8346096,33.9065254 C38.8088967,32.4859866 38.7792278,32.270577 38.5359435,31.766014 C38.0721209,30.8102552 36.7874608,30.3280095 35.7203722,30.7093426 C34.9153581,30.9975257 34.4396679,31.5166434 34.2487985,32.320063 C34.1815492,32.6033945 34.1736375,32.8576166 34.1736375,34.936028 C34.1736375,37.4850414 34.1825381,37.5888649 34.4475796,38.1108936 C34.9212918,39.0394835 36.1070558,39.5246402 37.1850231,39.229665 L37.1850231,39.229665 Z M30.8764423,37.7780761 C30.9743494,37.7130651 31.0386318,37.6228259 31.0890688,37.4821305 C31.1533513,37.2968006 31.159285,37.0610144 31.1503844,34.8748982 C31.1414838,32.5966023 31.136539,32.462699 31.0613779,32.3132708 C30.8685306,31.9319376 30.3829508,31.8950657 29.9379185,32.2288535 L29.7915523,32.3375286 L29.7915523,34.936028 L29.7915523,37.5345274 L29.9369295,37.6432025 C30.2662535,37.8896621 30.6272242,37.9410887 30.8764423,37.7780761 L30.8764423,37.7780761 Z M31.840679,39.24519 C32.0829744,39.1762977 32.3757068,38.8939365 32.5072386,38.6057534 C32.7604125,38.0536451 32.7614015,38.0400607 32.7614015,34.936028 C32.7614015,32.3879849 32.7534898,32.0736033 32.6892074,31.7980343 C32.4805366,30.9160194 32.0256147,30.530805 31.260159,30.5870831 C30.831939,30.6200738 30.4947034,30.7869677 30.0902184,31.1702415 C29.9141834,31.3361651 29.7569387,31.4729793 29.7391374,31.4729793 C29.723314,31.4729793 29.7084796,30.6288066 29.7084796,29.5983338 L29.7084796,27.7236882 L28.9608252,27.7236882 L28.2131709,27.7236882 L28.2131709,33.4689141 L28.2131709,39.2151103 L28.9608252,39.2151103 L29.7084796,39.2151103 L29.7084796,38.8279552 C29.7084796,38.5708221 29.724303,38.4408001 29.7549607,38.4408001 C29.7796848,38.4408001 29.9478081,38.576644 30.1287879,38.7435379 C30.7102969,39.2801213 31.2136779,39.4276089 31.840679,39.24519 L31.840679,39.24519 Z M23.8825116,39.2073478 C24.1811778,39.0986726 24.5322589,38.8599755 24.8279581,38.5650003 C24.9634458,38.4291564 25.0989334,38.3185406 25.1286022,38.3185406 C25.1681607,38.3185406 25.1820061,38.4291564 25.1820061,38.7668255 L25.1820061,39.2151103 L25.9296605,39.2151103 L26.6773148,39.2151103 L26.6773148,34.9564046 L26.6773148,30.6986692 L25.9296605,30.6986692 L25.1820061,30.6986692 L25.1820061,33.9831802 L25.1820061,37.2686615 L24.8596049,37.5820727 C24.604453,37.8314433 24.4976452,37.9071277 24.3394115,37.9498215 C24.0723921,38.022595 23.9022909,37.9721387 23.7925162,37.7868089 C23.7094435,37.6490244 23.7074656,37.5849837 23.6955981,34.1723913 L23.6847195,30.6986692 L22.9370651,30.6986692 L22.1913887,30.6986692 L22.1913887,34.3868306 C22.1913887,38.4048985 22.1953446,38.4922267 22.4247835,38.8793818 C22.6759795,39.3024385 23.2634222,39.4353714 23.8825116,39.2073478 L23.8825116,39.2073478 Z M24.5174245,42.7606356 C23.546265,42.7441402 22.3970926,42.7179418 21.9629388,42.7024168 C19.0484714,42.5995635 17.0478037,42.4899181 16.6482636,42.4103524 C16.0786221,42.2977961 15.4417314,41.9193738 15.0718601,41.474 C14.4804615,40.7608196 14.1639941,39.8953 14.0107052,38.5630596 C13.6556682,35.4658191 13.6635799,31.8533422 14.0324623,28.8647768 C14.1946519,27.5548536 14.5971589,26.608798 15.2726191,25.9489849 C15.6583138,25.571533 16.0291741,25.3619453 16.5226655,25.2377452 C17.5927211,24.9689683 25.965263,24.7554994 31.058411,24.8661151 C34.0005694,24.9301558 37.1790893,25.064059 38.0236618,25.1581794 C39.1164635,25.2804389 39.883897,25.8354582 40.414969,26.8882483 C40.816487,27.682935 40.944063,28.301995 41.1072415,30.2096312 C41.2348175,31.7194389 41.2664642,32.660643 41.2427291,34.4042962 C41.2160272,36.4904701 41.0805396,38.3282438 40.8778026,39.359687 C40.6641871,40.4503193 40.1598171,41.3798795 39.506114,41.8834722 C39.002733,42.2725679 38.4657273,42.446254 37.6201658,42.4928291 C37.3689698,42.5073838 37.0515134,42.52679 36.9140478,42.5374635 C36.4274791,42.5743354 33.8186006,42.6771886 32.3875743,42.7169715 C30.2613087,42.7751903 26.5408382,42.7955669 24.5174245,42.7606356 Z M21.8935999,23.8343453 C21.8579973,23.7770969 21.8639311,20.4246639 21.8995337,19.9501806 C21.9460148,19.3417941 21.841185,18.8624593 21.3961526,17.6379237 C21.2517643,17.2410655 20.9906787,16.4706366 20.8166216,15.9272611 C19.5576745,11.998462 19.6239349,12.2284263 19.7445881,12.227456 C20.5743262,12.2206638 21.5979006,12.2255153 21.6097681,12.2371591 C21.6176798,12.2449216 21.8866772,13.2035913 22.2080894,14.3689377 C22.5304906,15.5333139 22.798499,16.502657 22.8054217,16.5240039 C22.8113555,16.5434102 23.000247,15.8651611 23.2247411,15.0161368 C23.6944975,13.2346413 23.95855,12.2517138 23.9684396,12.242981 C23.9892078,12.2235747 24.2226025,12.2196935 24.9870692,12.2235747 L25.8326307,12.2284263 L25.8138404,12.3613592 C25.799006,12.469064 25.2214529,14.3708784 24.6171979,16.3027724 C24.5519265,16.5162414 24.3828142,17.0664091 24.2433707,17.5263377 C24.1039272,17.9852959 23.9358039,18.5306121 23.8685546,18.7382592 L23.7469124,19.1166814 L23.7469124,21.4764837 C23.7469124,23.6897686 23.7419676,23.8382266 23.6747182,23.8556922 C23.5224183,23.8964454 21.9203018,23.8770391 21.8935999,23.8343453 Z M32.8216165,23.9760111 C32.404275,23.9216736 32.1600017,23.7635125 31.9928674,23.4384575 C31.7832077,23.0309258 31.7832077,23.0328664 31.7832077,18.9721047 L31.7832077,15.1830307 L32.6258023,15.1830307 L33.4674079,15.1830307 L33.4852092,18.6761591 C33.5039994,22.4700847 33.4990546,22.3817861 33.7304714,22.4390346 C33.943098,22.4904612 34.1784707,22.3788752 34.4712031,22.0858405 L34.7520679,21.8054199 L34.7629465,18.4937402 L34.7728361,15.1830307 L35.6144417,15.171387 L36.4560473,15.1616838 L36.4560473,19.4980146 L36.4560473,23.8353157 L36.3413279,23.8586032 C36.2038623,23.8867423 34.9281029,23.8848016 34.825251,23.8556922 C34.7629465,23.8391969 34.7530569,23.7829187 34.7530569,23.443309 L34.7530569,23.0493618 L34.5137284,23.2783557 C33.9638662,23.8032953 33.3704897,24.0478143 32.8216165,23.9760111 L32.8216165,23.9760111 Z M28.5809527,22.3196861 C28.8697292,22.1042765 28.8717071,22.0858405 28.8865415,19.6474429 C28.899398,17.7524207 28.8924753,17.4302766 28.8341266,17.1721733 C28.7550098,16.8228604 28.6165553,16.6579071 28.34558,16.5851336 C27.9954879,16.4939242 27.6750646,16.6899275 27.5623231,17.0654388 C27.4772724,17.3545922 27.4782614,21.6530807 27.564301,21.9422341 C27.6295724,22.1595844 27.8382431,22.3973111 27.992521,22.4303018 C28.19328,22.4720253 28.4395313,22.4254502 28.5819416,22.3196861 L28.5809527,22.3196861 Z M27.9213158,23.9740705 C27.1677277,23.8848016 26.4754552,23.4501012 26.1421754,22.8562694 C25.8029618,22.2517641 25.7713151,21.9354419 25.7910943,19.2729019 C25.8069177,17.2109858 25.8128515,17.0819341 25.8959242,16.7859885 C26.0947053,16.0825113 26.479411,15.6031764 27.0757544,15.3130527 C27.8946139,14.9161945 28.7777559,14.9676211 29.5501342,15.4585997 C30.0426367,15.7700703 30.3413029,16.2222364 30.5015145,16.8946636 C30.5717307,17.1915795 30.5786534,17.4196032 30.5786534,19.5018958 C30.5786534,22.0344139 30.5667859,22.1809312 30.3017444,22.7291583 C30.0475815,23.2579792 29.4720063,23.7237296 28.8717071,23.8877126 C28.6066656,23.9585455 28.1467989,24.0012393 27.9213158,23.9740705 L27.9213158,23.9740705 Z" id="Shape" fill="#4A4A4A"></path>
                </g>
            </g>
        </g>
    </g>
</svg>



<svg id="profilePicture" width="100px" height="100px" viewBox="0 0 100 100" x="0" y="275">
    <!-- Generator: Sketch 3.8.2 (29753) - http://www.bohemiancoding.com/sketch -->

    <defs>
        <path d="M9.77068794,0.238987849 L7.25822532,3.19391512 L2.79162512,3.19391512 C1.25623131,3.19391512 0,4.5236324 0,6.1488424 L0,23.8784061 C0,25.5036161 1.25623131,26.8333333 2.79162512,26.8333333 L25.1246261,26.8333333 C26.6600199,26.8333333 27.9162512,25.5036161 27.9162512,23.8784061 L27.9162512,6.1488424 C27.9162512,4.5236324 26.6600199,3.19391512 25.1246261,3.19391512 L20.6580259,3.19391512 L18.1455633,0.238987849 L9.77068794,0.238987849 L9.77068794,0.238987849 Z M14.0531184,20.62269 C10.7864518,20.62269 8.21978509,18.0560233 8.21978509,14.7893566 C8.21978509,11.52269 10.7864518,8.95602331 14.0531184,8.95602331 C17.3197851,8.95602331 19.8864518,11.52269 19.8864518,14.7893566 C19.8864518,18.0560233 17.3197851,20.62269 14.0531184,20.62269 L14.0531184,20.62269 Z" id="path-3"></path>
        <mask id="mask-3" maskContentUnits="userSpaceOnUse" maskUnits="objectBoundingBox" x="0" y="0" width="27.9162512" height="26.5943455" fill="white">
            <use xlink:href="#path-3"></use>
        </mask>
    </defs>
    <g id="Page-1" stroke="none" stroke-width="1" fill="none" fill-rule="evenodd">
        <g id="2-Sign-Up" transform="translate(-110.000000, -50.000000)">
            <g id="profile-picture" transform="translate(110.000000, 50.000000)">
                <g id="Group">
                    <path d="M50,100 C77.6142375,100 100,77.6142375 100,50 C100,22.3857625 77.6142375,0 50,0 C22.3857625,0 0,22.3857625 0,50 C0,77.6142375 22.3857625,100 50,100 Z" id="bg" fill="#C2C2C2"></path>
                    <g id="camera" transform="translate(35.416667, 35.416667)">
                        <g id="group" transform="translate(0.583333, 1.166667)" stroke="#FFFFFF" stroke-width="5.33333333">
                            <use id="shape" mask="url(#mask-3)" xlink:href="#path-3"></use>
                        </g>
                        <rect id="bounds" x="0" y="0" width="29.1666667" height="29.1666667"></rect>
                    </g>
                </g>
            </g>
        </g>
    </g>
</svg>


</svg>


