<?xml version="1.0" encoding="UTF-8" standalone="no"?>
<svg width="55px" height="55px" viewBox="0 0 55 55" version="1.1" xmlns="http://www.w3.org/2000/svg" xmlns:xlink="http://www.w3.org/1999/xlink">
    <!-- Generator: sketchtool 3.8.2 (29753) - http://www.bohemiancoding.com/sketch -->
    <title>3939274B-7CD5-493E-BF5D-71A4E1F5D85C</title>
    <desc>Created with sketchtool.</desc>
    <defs>
        <ellipse id="path-1" cx="27.5" cy="27.5119931" rx="27.5" ry="26.8888889"></ellipse>
        <mask id="mask-2" maskContentUnits="userSpaceOnUse" maskUnits="objectBoundingBox" x="0" y="0" width="55" height="53.7777778" fill="white">
            <use xlink:href="#path-1"></use>
        </mask>
    </defs>
    <g id="Symbols" stroke="none" stroke-width="1" fill="none" fill-rule="evenodd">
        <g id="social-median-icons" transform="translate(-243.000000, 0.000000)">
            <g id="social-media">
                <g id="youtube" transform="translate(243.000000, 0.000000)">
                    <rect id="Rectangle" x="0" y="0" width="55" height="53.7777778"></rect>
                    <use id="Oval" stroke="#4A4A4A" mask="url(#mask-2)" stroke-width="3" xlink:href="#path-1"></use>
                    <path d="M19.9068893,34.2432242 L19.9276575,29.2917147 L20.874093,29.2820116 L21.8195395,29.2703678 L21.8086609,28.5077014 L21.7967934,27.7440648 L19.0652837,27.7333913 L16.3357519,27.7227179 L16.3357519,28.497028 L16.3357519,29.2703678 L17.2594413,29.2820116 L18.1831307,29.2917147 L18.1940092,34.202471 C18.1989541,36.9028533 18.2127995,39.1365149 18.2236781,39.164654 C18.2385125,39.2044368 18.4303709,39.2141399 19.0642947,39.2054071 L19.8861211,39.1947337 L19.9068893,34.2432242 Z M35.6620235,33.8948817 C35.623454,33.7959097 35.6768579,32.6519102 35.7282838,32.4859866 C35.8479481,32.0959205 36.102111,31.9057391 36.5026401,31.9057391 C36.8359199,31.9057391 37.0475575,32.0318799 37.1899679,32.3152114 C37.2799633,32.4947194 37.288864,32.5713741 37.3027094,33.2350685 L37.3165549,33.957952 L36.5006622,33.957952 C35.799489,33.957952 35.6827916,33.9492192 35.6620235,33.8948817 L35.6620235,33.8948817 Z M37.1850231,39.229665 C37.9841034,39.0094038 38.5369325,38.4737908 38.7456032,37.7179166 C38.7802168,37.5888649 38.8207642,37.2211161 38.8346096,36.901883 L38.8583447,36.3216356 L38.0889332,36.3216356 L37.3185328,36.3216356 L37.2997425,36.8417236 C37.2779854,37.4326445 37.2156809,37.63544 36.9961316,37.8246511 C36.7627368,38.025506 36.3335278,38.0400607 36.0546409,37.8557011 C35.7223501,37.63544 35.6402663,37.2638099 35.6570787,36.05674 L35.6689462,35.2009236 L37.262162,35.1912204 L38.8553778,35.1795767 L38.8346096,33.9065254 C38.8088967,32.4859866 38.7792278,32.270577 38.5359435,31.766014 C38.0721209,30.8102552 36.7874608,30.3280095 35.7203722,30.7093426 C34.9153581,30.9975257 34.4396679,31.5166434 34.2487985,32.320063 C34.1815492,32.6033945 34.1736375,32.8576166 34.1736375,34.936028 C34.1736375,37.4850414 34.1825381,37.5888649 34.4475796,38.1108936 C34.9212918,39.0394835 36.1070558,39.5246402 37.1850231,39.229665 L37.1850231,39.229665 Z M30.8764423,37.7780761 C30.9743494,37.7130651 31.0386318,37.6228259 31.0890688,37.4821305 C31.1533513,37.2968006 31.159285,37.0610144 31.1503844,34.8748982 C31.1414838,32.5966023 31.136539,32.462699 31.0613779,32.3132708 C30.8685306,31.9319376 30.3829508,31.8950657 29.9379185,32.2288535 L29.7915523,32.3375286 L29.7915523,34.936028 L29.7915523,37.5345274 L29.9369295,37.6432025 C30.2662535,37.8896621 30.6272242,37.9410887 30.8764423,37.7780761 L30.8764423,37.7780761 Z M31.840679,39.24519 C32.0829744,39.1762977 32.3757068,38.8939365 32.5072386,38.6057534 C32.7604125,38.0536451 32.7614015,38.0400607 32.7614015,34.936028 C32.7614015,32.3879849 32.7534898,32.0736033 32.6892074,31.7980343 C32.4805366,30.9160194 32.0256147,30.530805 31.260159,30.5870831 C30.831939,30.6200738 30.4947034,30.7869677 30.0902184,31.1702415 C29.9141834,31.3361651 29.7569387,31.4729793 29.7391374,31.4729793 C29.723314,31.4729793 29.7084796,30.6288066 29.7084796,29.5983338 L29.7084796,27.7236882 L28.9608252,27.7236882 L28.2131709,27.7236882 L28.2131709,33.4689141 L28.2131709,39.2151103 L28.9608252,39.2151103 L29.7084796,39.2151103 L29.7084796,38.8279552 C29.7084796,38.5708221 29.724303,38.4408001 29.7549607,38.4408001 C29.7796848,38.4408001 29.9478081,38.576644 30.1287879,38.7435379 C30.7102969,39.2801213 31.2136779,39.4276089 31.840679,39.24519 L31.840679,39.24519 Z M23.8825116,39.2073478 C24.1811778,39.0986726 24.5322589,38.8599755 24.8279581,38.5650003 C24.9634458,38.4291564 25.0989334,38.3185406 25.1286022,38.3185406 C25.1681607,38.3185406 25.1820061,38.4291564 25.1820061,38.7668255 L25.1820061,39.2151103 L25.9296605,39.2151103 L26.6773148,39.2151103 L26.6773148,34.9564046 L26.6773148,30.6986692 L25.9296605,30.6986692 L25.1820061,30.6986692 L25.1820061,33.9831802 L25.1820061,37.2686615 L24.8596049,37.5820727 C24.604453,37.8314433 24.4976452,37.9071277 24.3394115,37.9498215 C24.0723921,38.022595 23.9022909,37.9721387 23.7925162,37.7868089 C23.7094435,37.6490244 23.7074656,37.5849837 23.6955981,34.1723913 L23.6847195,30.6986692 L22.9370651,30.6986692 L22.1913887,30.6986692 L22.1913887,34.3868306 C22.1913887,38.4048985 22.1953446,38.4922267 22.4247835,38.8793818 C22.6759795,39.3024385 23.2634222,39.4353714 23.8825116,39.2073478 L23.8825116,39.2073478 Z M24.5174245,42.7606356 C23.546265,42.7441402 22.3970926,42.7179418 21.9629388,42.7024168 C19.0484714,42.5995635 17.0478037,42.4899181 16.6482636,42.4103524 C16.0786221,42.2977961 15.4417314,41.9193738 15.0718601,41.474 C14.4804615,40.7608196 14.1639941,39.8953 14.0107052,38.5630596 C13.6556682,35.4658191 13.6635799,31.8533422 14.0324623,28.8647768 C14.1946519,27.5548536 14.5971589,26.608798 15.2726191,25.9489849 C15.6583138,25.571533 16.0291741,25.3619453 16.5226655,25.2377452 C17.5927211,24.9689683 25.965263,24.7554994 31.058411,24.8661151 C34.0005694,24.9301558 37.1790893,25.064059 38.0236618,25.1581794 C39.1164635,25.2804389 39.883897,25.8354582 40.414969,26.8882483 C40.816487,27.682935 40.944063,28.301995 41.1072415,30.2096312 C41.2348175,31.7194389 41.2664642,32.660643 41.2427291,34.4042962 C41.2160272,36.4904701 41.0805396,38.3282438 40.8778026,39.359687 C40.6641871,40.4503193 40.1598171,41.3798795 39.506114,41.8834722 C39.002733,42.2725679 38.4657273,42.446254 37.6201658,42.4928291 C37.3689698,42.5073838 37.0515134,42.52679 36.9140478,42.5374635 C36.4274791,42.5743354 33.8186006,42.6771886 32.3875743,42.7169715 C30.2613087,42.7751903 26.5408382,42.7955669 24.5174245,42.7606356 Z M21.8935999,23.8343453 C21.8579973,23.7770969 21.8639311,20.4246639 21.8995337,19.9501806 C21.9460148,19.3417941 21.841185,18.8624593 21.3961526,17.6379237 C21.2517643,17.2410655 20.9906787,16.4706366 20.8166216,15.9272611 C19.5576745,11.998462 19.6239349,12.2284263 19.7445881,12.227456 C20.5743262,12.2206638 21.5979006,12.2255153 21.6097681,12.2371591 C21.6176798,12.2449216 21.8866772,13.2035913 22.2080894,14.3689377 C22.5304906,15.5333139 22.798499,16.502657 22.8054217,16.5240039 C22.8113555,16.5434102 23.000247,15.8651611 23.2247411,15.0161368 C23.6944975,13.2346413 23.95855,12.2517138 23.9684396,12.242981 C23.9892078,12.2235747 24.2226025,12.2196935 24.9870692,12.2235747 L25.8326307,12.2284263 L25.8138404,12.3613592 C25.799006,12.469064 25.2214529,14.3708784 24.6171979,16.3027724 C24.5519265,16.5162414 24.3828142,17.0664091 24.2433707,17.5263377 C24.1039272,17.9852959 23.9358039,18.5306121 23.8685546,18.7382592 L23.7469124,19.1166814 L23.7469124,21.4764837 C23.7469124,23.6897686 23.7419676,23.8382266 23.6747182,23.8556922 C23.5224183,23.8964454 21.9203018,23.8770391 21.8935999,23.8343453 Z M32.8216165,23.9760111 C32.404275,23.9216736 32.1600017,23.7635125 31.9928674,23.4384575 C31.7832077,23.0309258 31.7832077,23.0328664 31.7832077,18.9721047 L31.7832077,15.1830307 L32.6258023,15.1830307 L33.4674079,15.1830307 L33.4852092,18.6761591 C33.5039994,22.4700847 33.4990546,22.3817861 33.7304714,22.4390346 C33.943098,22.4904612 34.1784707,22.3788752 34.4712031,22.0858405 L34.7520679,21.8054199 L34.7629465,18.4937402 L34.7728361,15.1830307 L35.6144417,15.171387 L36.4560473,15.1616838 L36.4560473,19.4980146 L36.4560473,23.8353157 L36.3413279,23.8586032 C36.2038623,23.8867423 34.9281029,23.8848016 34.825251,23.8556922 C34.7629465,23.8391969 34.7530569,23.7829187 34.7530569,23.443309 L34.7530569,23.0493618 L34.5137284,23.2783557 C33.9638662,23.8032953 33.3704897,24.0478143 32.8216165,23.9760111 L32.8216165,23.9760111 Z M28.5809527,22.3196861 C28.8697292,22.1042765 28.8717071,22.0858405 28.8865415,19.6474429 C28.899398,17.7524207 28.8924753,17.4302766 28.8341266,17.1721733 C28.7550098,16.8228604 28.6165553,16.6579071 28.34558,16.5851336 C27.9954879,16.4939242 27.6750646,16.6899275 27.5623231,17.0654388 C27.4772724,17.3545922 27.4782614,21.6530807 27.564301,21.9422341 C27.6295724,22.1595844 27.8382431,22.3973111 27.992521,22.4303018 C28.19328,22.4720253 28.4395313,22.4254502 28.5819416,22.3196861 L28.5809527,22.3196861 Z M27.9213158,23.9740705 C27.1677277,23.8848016 26.4754552,23.4501012 26.1421754,22.8562694 C25.8029618,22.2517641 25.7713151,21.9354419 25.7910943,19.2729019 C25.8069177,17.2109858 25.8128515,17.0819341 25.8959242,16.7859885 C26.0947053,16.0825113 26.479411,15.6031764 27.0757544,15.3130527 C27.8946139,14.9161945 28.7777559,14.9676211 29.5501342,15.4585997 C30.0426367,15.7700703 30.3413029,16.2222364 30.5015145,16.8946636 C30.5717307,17.1915795 30.5786534,17.4196032 30.5786534,19.5018958 C30.5786534,22.0344139 30.5667859,22.1809312 30.3017444,22.7291583 C30.0475815,23.2579792 29.4720063,23.7237296 28.8717071,23.8877126 C28.6066656,23.9585455 28.1467989,24.0012393 27.9213158,23.9740705 L27.9213158,23.9740705 Z" id="Shape" fill="#4A4A4A"></path>
                </g>
            </g>
        </g>
    </g>
</svg>