<?xml version="1.0" encoding="iso-8859-1"?>
<!-- Generator: Adobe Illustrator 16.0.0, SVG Export Plug-In . SVG Version: 6.00 Build 0)  -->
<!DOCTYPE svg PUBLIC "-//W3C//DTD SVG 1.1//EN" "http://www.w3.org/Graphics/SVG/1.1/DTD/svg11.dtd">
<svg version="1.1" id="Capa_1" xmlns="http://www.w3.org/2000/svg" xmlns:xlink="http://www.w3.org/1999/xlink" x="0px" y="0px"
	 width="44.965px" height="44.965px" viewBox="0 0 44.965 44.965" style="enable-background:new 0 0 44.965 44.965;"
	 xml:space="preserve">
<g>
	<g>
		<path d="M10.908,41.809c-0.105-0.063-0.212-0.127-0.316-0.191C10.697,41.682,10.801,41.746,10.908,41.809z"/>
		<path d="M35.083,41.079c-0.035,0.022-0.066,0.046-0.102,0.067C35.016,41.125,35.048,41.102,35.083,41.079z"/>
		<path d="M3.224,34.254c-0.05-0.08-0.098-0.16-0.146-0.24C3.126,34.094,3.173,34.174,3.224,34.254z"/>
		<path d="M9.425,40.843C9.25,40.719,9.071,40.598,8.9,40.467C9.072,40.598,9.25,40.719,9.425,40.843z"/>
		<path d="M32.257,42.712c-0.051,0.024-0.103,0.05-0.153,0.073C32.155,42.761,32.206,42.736,32.257,42.712z"/>
		<path d="M42.229,33.201c0.002-0.002,0.003-0.006,0.005-0.008C42.232,33.195,42.231,33.199,42.229,33.201z"/>
		<path d="M38.275,31.718c0-2.007,1.627-3.634,3.634-3.634c0.803,0,1.534,0.271,2.135,0.713c0.401-1.372,0.676-2.798,0.811-4.266
			c-0.66,0.914-1.73,1.515-2.943,1.515c-2.008,0-3.635-1.627-3.635-3.636c0-2.006,1.627-3.633,3.635-3.633
			c1.206,0,2.271,0.593,2.932,1.499c-0.143-1.455-0.426-2.867-0.832-4.227c-0.592,0.432-1.311,0.699-2.1,0.699
			c-2.008,0-3.635-1.626-3.635-3.634c0-1.657,1.117-3.036,2.635-3.473c-1.425-2.038-3.177-3.83-5.184-5.299
			c-0.262,1.749-1.744,3.099-3.564,3.099c-2.009,0-3.636-1.627-3.636-3.634c0-1.036,0.453-1.95,1.151-2.608
			C27.401,0.426,24.96,0,22.419,0c-2.747,0-5.378,0.492-7.813,1.39c0.588,0.642,0.961,1.479,0.961,2.418
			c0,2.007-1.627,3.634-3.634,3.634c-1.649,0-3.015-1.107-3.455-2.614c-1.867,1.47-3.497,3.225-4.818,5.204
			c1.047,0.635,1.755,1.77,1.755,3.083c0,2.008-1.627,3.634-3.634,3.634c-0.386,0-0.75-0.074-1.097-0.189
			c-0.235,0.86-0.422,1.739-0.554,2.637c0.497-0.258,1.052-0.419,1.65-0.419c2.007,0,3.634,1.627,3.634,3.634
			c0,2.008-1.627,3.635-3.634,3.635c-0.605,0-1.168-0.164-1.67-0.428c0.127,0.906,0.307,1.796,0.538,2.664
			c0.356-0.123,0.733-0.198,1.132-0.198c2.007,0,3.634,1.627,3.634,3.634c0,1.34-0.728,2.506-1.809,3.133
			c1.366,2.064,3.065,3.891,5.02,5.402c0.435-1.518,1.814-2.633,3.471-2.633c2.007,0,3.634,1.627,3.634,3.635
			c0,0.922-0.355,1.752-0.924,2.391c2.378,0.853,4.94,1.318,7.612,1.318c2.549,0,4.997-0.43,7.281-1.207
			c-0.622-0.65-1.011-1.529-1.011-2.502c0-2.008,1.627-3.635,3.635-3.635c1.754,0,3.199,1.25,3.537,2.904
			c1.984-1.476,3.717-3.271,5.123-5.308C39.427,34.809,38.275,33.404,38.275,31.718z M11.934,35.354
			c-2.007,0-3.634-1.627-3.634-3.636c0-2.007,1.627-3.634,3.634-3.634c2.007,0,3.634,1.627,3.634,3.634
			C15.567,33.727,13.94,35.354,11.934,35.354z M11.934,26.046c-2.007,0-3.634-1.627-3.634-3.636c0-2.006,1.627-3.633,3.634-3.633
			c2.007,0,3.634,1.627,3.634,3.633C15.567,24.42,13.94,26.046,11.934,26.046z M11.934,16.75c-2.007,0-3.634-1.626-3.634-3.634
			c0-2.007,1.627-3.634,3.634-3.634c2.007,0,3.634,1.627,3.634,3.634C15.567,15.124,13.94,16.75,11.934,16.75z M22.008,0.175
			c2.007,0,3.634,1.627,3.634,3.634c0,2.007-1.627,3.634-3.634,3.634c-2.008,0-3.634-1.627-3.634-3.634
			C18.375,1.802,20.001,0.175,22.008,0.175z M22.008,9.482c2.007,0,3.634,1.627,3.634,3.634c0,2.008-1.627,3.634-3.634,3.634
			c-2.008,0-3.634-1.626-3.634-3.634C18.375,11.109,20.001,9.482,22.008,9.482z M22.008,18.778c2.007,0,3.634,1.627,3.634,3.634
			c0,2.008-1.627,3.635-3.634,3.635c-2.008,0-3.634-1.627-3.634-3.635C18.375,20.405,20.001,18.778,22.008,18.778z M22.008,28.085
			c2.007,0,3.634,1.627,3.634,3.634c0,2.008-1.627,3.635-3.634,3.635c-2.008,0-3.634-1.627-3.634-3.635
			C18.375,29.712,20.001,28.085,22.008,28.085z M22.171,44.889c-2.008,0-3.634-1.627-3.634-3.634c0-2.008,1.626-3.635,3.634-3.635
			c2.007,0,3.634,1.627,3.634,3.635C25.806,43.262,24.179,44.889,22.171,44.889z M32.161,35.354c-2.008,0-3.635-1.627-3.635-3.636
			c0-2.007,1.627-3.634,3.635-3.634s3.635,1.627,3.635,3.634C35.796,33.727,34.169,35.354,32.161,35.354z M32.161,26.046
			c-2.008,0-3.635-1.627-3.635-3.636c0-2.006,1.627-3.633,3.635-3.633s3.635,1.627,3.635,3.633
			C35.796,24.42,34.169,26.046,32.161,26.046z M32.161,16.75c-2.008,0-3.635-1.626-3.635-3.634c0-2.007,1.627-3.634,3.635-3.634
			s3.635,1.627,3.635,3.634C35.796,15.124,34.169,16.75,32.161,16.75z"/>
	</g>
</g>
<g>
</g>
<g>
</g>
<g>
</g>
<g>
</g>
<g>
</g>
<g>
</g>
<g>
</g>
<g>
</g>
<g>
</g>
<g>
</g>
<g>
</g>
<g>
</g>
<g>
</g>
<g>
</g>
<g>
</g>
</svg>
